<svg width="500" height="450" viewBox="0 0 500 450" xmlns="http://www.w3.org/2000/svg">
  <defs>
    <!-- Soft aura behind figure -->
    <radialGradient id="aura" cx="50%" cy="48%" r="40%">
      <stop offset="0%" stop-color="#FFF0F5" stop-opacity="0.85"/>
      <stop offset="100%" stop-color="#FFF0F5" stop-opacity="0"/>
    </radialGradient>
    <!-- Glow filter for badges -->
    <filter id="badgeGlow" x="-25%" y="-25%" width="150%" height="150%">
      <feGaussianBlur stdDeviation="2.5" result="blur"/>
      <feMerge><feMergeNode in="blur"/><feMergeNode in="SourceGraphic"/></feMerge>
    </filter>
  </defs>

  <!-- Background aura (no white rect — transparent background) -->
  <ellipse cx="250" cy="210" rx="175" ry="155" fill="url(#aura)"/>

  <!-- ══════════════════════════════════ -->
  <!--  FAIRY ILLUSTRATION (from AI)     -->
  <!--  Source: fairy-avatar.svg         -->
  <!--  White background path removed    -->
  <!-- ══════════════════════════════════ -->
  <g transform="scale(0.574) translate(-225, 3)">
  <path id="70" d="M 474,194 C 476.562,175.855 478.121,171.719 484.991,164.849 C 493.237,156.603 503.234,154.059 514.304,157.391 C 531.220,162.482 581.539,198.298 607.758,223.910 C 611.750,227.809 615.601,231 616.316,231 C 617.315,231 617.522,228.971 617.211,222.250 C 616.921,215.977 617.240,212.368 618.337,209.500 C 619.179,207.300 621.497,201 623.488,195.500 C 628.054,182.890 632.271,175.346 639.663,166.571 C 650.681,153.491 666.510,143.690 682.949,139.768 C 687.652,138.646 692.158,137.413 692.962,137.029 C 693.890,136.585 694.857,133.438 695.609,128.415 C 698.138,111.518 707.809,94.076 716.718,90.347 C 723.708,87.421 733.537,89.518 738.500,94.994 C 739.600,96.208 741.400,99.068 742.500,101.350 C 743.167,102.733 743.833,104.117 744.500,105.500 C 747.113,105.564 749.726,105.628 752.339,105.692 C 777.924,106.318 799.388,124.942 802.411,149.138 C 803.236,155.739 803.447,156.065 808.848,159.064 C 817.005,163.594 820.380,174.367 816.530,183.582 C 814.277,188.975 804.414,198.079 796.178,202.370 C 790.351,205.406 789.008,206.523 789.595,207.842 C 790.001,208.754 790.484,214.562 790.667,220.750 C 790.778,224.500 790.889,228.250 791,232 C 793.208,241.348 795.155,241.249 805.391,231.271 C 829.001,208.257 858.145,186.398 885.500,171.188 C 898.046,164.212 902.753,163.035 908.498,165.435 C 919.394,169.988 923.396,176.766 925.122,193.594 C 928.054,222.177 921.319,264.728 909.307,293.500 C 896.372,324.483 873.760,352.445 846.750,370.858 C 840.127,375.373 840.313,377.624 847.936,385.176 C 855.377,392.548 860.855,400.699 864.901,410.418 C 868.813,419.816 870,425.928 870,436.689 C 870,447.954 867.770,457.094 862.546,467.247 C 859.192,473.765 858.190,476.835 858.107,480.834 C 858.071,482.556 858.036,484.278 858,486 C 857.973,489.416 854.056,497.512 849.649,503.259 C 846.647,507.174 845.996,508.858 845.978,512.759 C 845.940,520.947 840.522,530.064 833.500,533.755 C 831.850,534.622 827.800,535.595 824.500,535.916 C 822.500,536.111 820.500,536.305 818.500,536.500 C 816.833,539.077 815.167,541.653 813.500,544.230 C 810.750,548.481 804.686,558.157 800.024,565.730 C 794.276,575.068 789.418,581.592 784.933,586 C 781.295,589.575 778.040,593.625 777.699,595 C 777.358,596.375 775.565,600.012 773.714,603.082 C 770.336,608.684 767.335,621.104 768.577,624.341 C 768.892,625.161 770.818,626.988 772.858,628.401 C 778.813,632.528 783.577,638.036 787.159,644.934 C 790.146,650.686 790.500,652.230 790.500,659.503 C 790.500,666.654 790.175,668.129 787.816,671.698 C 786.127,674.252 783.346,676.637 780.316,678.129 C 775.544,680.478 775.205,680.499 743.500,680.442 C 725.900,680.410 708.800,680.288 705.500,680.170 C 702.200,680.052 685.879,680.220 669.231,680.544 C 634.232,681.226 629.922,680.731 623.960,675.345 C 618.734,670.623 616.571,664.670 617.272,656.937 C 618.223,646.452 624.019,637.426 635.902,627.923 C 637.369,626.750 638.836,625.577 640.303,624.404 C 639.930,621.895 639.557,619.385 639.184,616.876 C 638.376,611.443 637.116,607.775 634.658,603.693 C 626.412,589.998 626.026,572.749 633.631,557.742 C 636.305,552.466 635.735,550 631.845,550 C 628.510,550 622.618,547.017 619,543.498 C 615.611,540.202 615.358,540.127 611,541.129 C 605.009,542.507 599.426,541.651 590.706,538.021 C 578.042,532.749 568.501,526.432 558.046,516.397 C 540.214,499.281 530.553,480.687 526.496,455.672 C 524.044,440.556 524.813,412.833 528.015,400.943 C 528.644,398.606 530.908,394.885 533.237,392.358 C 536.679,388.624 538.506,387.580 544.460,385.947 C 550.146,384.387 551.908,383.426 553.254,381.147 C 555.309,377.669 554.977,377.177 546,370.409 C 519.974,350.786 498.796,320.659 487.088,286.601 C 478.813,262.529 475.041,240.674 474.429,213.250 C 474.286,206.833 474.143,200.417 474,194 ZM 656,315 C 631.632,282.083 622.889,271.740 600.574,249.435 C 572.900,221.773 549.099,203.099 520,186.216 C 506.874,178.600 505.127,178.127 501.535,181.217 C 499.078,183.330 498.683,184.579 497.794,193.040 C 495.968,210.422 498.185,238.229 503.052,259 C 515.292,311.235 544.865,348.794 591.294,371.072 C 596.082,373.370 600,375.587 600,376 C 600,376.413 596.155,378.596 591.457,380.850 C 581.830,385.469 570.912,393.396 570.364,396.163 C 570.243,396.775 570.121,397.388 570,398 C 557.987,400.238 552.340,401.168 549.699,401.512 C 543.825,402.277 543.531,402.889 541.923,417.686 C 540.533,430.477 541.190,447.358 543.510,458.500 C 549.524,487.378 568.393,510.637 595,521.972 C 604.339,525.950 608.075,525.702 619.189,520.365 C 621.872,519.077 624.554,517.788 627.237,516.500 C 627.813,518.904 628.389,521.308 628.965,523.712 C 630.705,530.976 632.294,534 634.372,533.999 C 634.992,533.999 638.330,532.660 641.790,531.023 C 646.590,528.752 648.202,528.362 648.591,529.376 C 648.871,530.107 650.104,536.723 651.331,544.078 C 652.074,548.536 652.818,552.994 653.561,557.452 C 652.478,559.061 651.396,560.669 650.313,562.278 C 646.253,568.311 645.007,572.727 645.028,581 C 645.046,588.065 647.375,594.614 651.429,599 C 653.387,601.118 653.998,603.637 655.432,615.500 C 656.363,623.200 657.359,630.466 657.645,631.647 C 658.081,633.446 657.185,634.316 652.128,637.012 C 643.542,641.588 638.091,646.610 635.374,652.444 C 632.748,658.084 632.415,661.015 634.200,662.800 C 635.719,664.319 696.549,664.538 697.483,663.027 C 697.814,662.492 698.589,644.720 699.205,623.535 C 700.260,587.255 700.223,584.904 698.564,583.071 C 696.973,581.312 696.875,579.659 697.539,565.879 C 697.784,560.797 698.029,555.715 698.274,550.633 C 699.257,551.068 700.241,551.504 701.224,551.939 C 703.637,553.007 704.613,553.010 706.586,551.954 C 707.912,551.244 709.203,550.870 709.455,551.122 C 709.707,551.374 710.226,558.201 710.608,566.293 C 711.234,579.551 711.129,581.200 709.537,582.959 C 707.867,584.805 707.837,587.007 709.001,623.206 C 709.716,645.429 710.655,662.025 711.239,662.750 C 712.004,663.700 719.499,664 742.500,664 C 776.384,664 775.788,664.125 774.546,657.261 C 773.193,649.786 764.600,640.644 754.890,636.350 C 753.496,635.733 752.100,635.117 750.706,634.500 C 751.341,628.969 751.976,623.439 752.611,617.908 C 754.468,601.731 754.598,601.222 757.810,597.564 C 759.982,595.090 761.683,591.592 762.802,587.297 C 764.381,581.237 764.860,580.544 769.660,577.354 C 776.270,572.961 776.728,572.336 795.891,541.468 C 804.758,527.186 812.623,515.091 813.370,514.591 C 814.310,513.962 816.174,514.719 819.420,517.050 C 823.126,519.711 824.468,520.198 825.806,519.362 C 829.603,516.991 831.103,510.030 829.005,504.513 C 828.106,502.149 828.484,501.420 832.906,496.998 C 835.599,494.305 839.030,489.595 840.529,486.531 C 842.921,481.642 843.173,480.239 842.587,475.062 C 841.921,469.174 841.926,469.158 845.504,466.429 C 848.143,464.416 849.342,462.547 850.045,459.347 C 850.363,457.898 850.682,456.449 851,455 C 854.839,445.649 855.296,442.531 855.246,435.500 C 855.084,412.673 841.800,393.288 818.532,381.923 C 812.739,379.094 808,376.382 808,375.897 C 808,375.412 812.162,373.061 817.250,370.673 C 867.999,346.847 899.493,302.132 908.510,241.103 C 910.574,227.136 911.412,202.447 910.176,192.022 C 909.306,184.681 908.806,183.229 906.445,181.199 C 902.878,178.131 901.116,178.608 888,186.205 C 844.814,211.218 802.066,249.621 766.911,294.986 C 761.735,301.665 756.487,308.901 755.250,311.065 C 754.500,312.377 753.750,313.688 753,315 C 747.963,314.966 745.375,314.076 744,313 C 742.602,311.906 739.924,311.034 737.924,311.022 C 733.305,310.993 730.202,314.216 729.191,320.091 C 728.938,321.561 728.686,323.030 728.433,324.500 C 727.528,323.598 726.621,322.697 725.716,321.795 C 723.808,319.896 723,318.064 723,315.641 C 723,312.484 723.488,311.915 728.750,308.946 C 736.588,304.523 744.759,295.890 749.316,287.218 C 751.738,282.608 753.722,279.997 754.805,279.991 C 755.738,279.986 758.834,278.642 761.687,277.006 C 770.161,272.146 775.294,263.716 777.185,251.551 C 778.582,242.563 777.542,239 773.521,239 C 770.477,239 770.365,237.655 773,232.739 C 775.818,227.480 775.881,214.108 773.099,211.590 C 772.053,210.644 770.890,208.212 770.513,206.185 C 770.136,204.158 769.022,200.198 768.037,197.385 C 767.440,195.680 766.843,193.975 766.246,192.270 C 768.622,192.088 770.997,191.905 773.373,191.723 C 783.402,190.954 791.220,187.758 797.219,181.976 C 802.463,176.921 803.231,173.751 799.347,173.195 C 797.902,172.988 796.515,173.873 795.042,175.941 C 793.847,177.619 790.987,180.094 788.685,181.440 C 784.191,184.068 775.490,186.420 773.899,185.437 C 773.365,185.107 774.813,182.962 777.119,180.669 C 783.734,174.091 786.452,167.211 786.478,156.979 C 786.497,149.343 786.158,147.765 783.213,141.782 C 777.236,129.640 767.115,122.984 753.500,122.242 C 746.924,121.884 744.441,122.206 739.551,124.050 C 732.608,126.668 725.182,133.154 720.718,140.500 C 719.705,142.167 718.692,143.833 717.679,145.500 C 717.557,143.167 717.436,140.833 717.314,138.500 C 716.868,129.957 718.576,123.257 723.466,114.361 C 727.087,107.773 727.417,105 724.582,105 C 720.774,105 713.728,118.717 711.819,129.848 C 710.767,135.982 710.803,138.517 712.031,145.301 C 712.521,148.006 713.010,150.712 713.500,153.417 C 710.167,153.471 706.833,153.525 703.500,153.579 C 692.833,153.752 681.331,156.282 673.677,160.139 C 656.418,168.836 643.167,184.988 638.493,203.026 C 637.588,206.520 635.982,210.479 634.924,211.824 C 632.174,215.320 632.218,227.070 635,232.261 C 637.701,237.300 637.570,239 634.479,239 C 630.486,239 629.460,242.500 630.896,251.228 C 632.393,260.327 635.668,267.602 640.396,272.330 C 644.141,276.075 650.781,280 653.370,280 C 654.167,280 656.674,283.379 658.941,287.509 C 663.667,296.121 672.071,304.894 679.738,309.221 C 684.682,312.011 685,312.427 685,316.095 C 685,318.690 684.317,320.683 682.964,322.036 C 680.458,324.542 679,323.800 679,320.018 C 679,318.396 677.877,315.820 676.411,314.077 C 673.247,310.316 667.734,309.848 663.727,313 C 662.329,314.100 660.018,315 658.592,315 C 657.728,315 656.864,315 656,315 Z" fill="#FEDBDA" stroke="none" />
  <path id="4" d="M 847,448 C 848.333,450.333 849.667,452.667 851,455 C 850.682,456.449 850.363,457.898 850.045,459.347 C 849.342,462.547 848.143,464.416 845.504,466.429 C 841.926,469.158 841.921,469.174 842.587,475.062 C 843.173,480.239 842.921,481.642 840.529,486.531 C 839.030,489.595 835.599,494.305 832.906,496.998 C 828.484,501.420 828.106,502.149 829.005,504.513 C 831.103,510.030 829.603,516.991 825.806,519.362 C 824.468,520.198 823.126,519.711 819.420,517.050 C 816.174,514.719 814.310,513.962 813.370,514.591 C 812.623,515.091 804.758,527.186 795.891,541.468 C 776.728,572.336 776.270,572.961 769.660,577.354 C 764.860,580.544 764.381,581.237 762.802,587.297 C 761.683,591.592 759.982,595.090 757.810,597.564 C 754.598,601.222 754.468,601.731 752.611,617.908 C 751.976,623.439 751.341,628.969 750.706,634.500 C 752.100,635.117 753.496,635.733 754.890,636.350 C 764.600,640.644 773.193,649.786 774.546,657.261 C 775.788,664.125 776.384,664 742.500,664 C 719.499,664 712.004,663.700 711.239,662.750 C 710.655,662.025 709.716,645.429 709.001,623.206 C 707.837,587.007 707.867,584.805 709.537,582.959 C 711.129,581.200 711.234,579.551 710.608,566.293 C 710.226,558.201 709.707,551.374 709.455,551.122 C 709.203,550.870 707.912,551.244 706.586,551.954 C 704.613,553.010 703.637,553.007 701.224,551.939 C 700.241,551.504 699.257,551.068 698.274,550.633 C 698.029,555.715 697.784,560.797 697.539,565.879 C 696.875,579.659 696.973,581.312 698.564,583.071 C 700.223,584.904 700.260,587.255 699.205,623.535 C 698.589,644.720 697.814,662.492 697.483,663.027 C 696.549,664.538 635.719,664.319 634.200,662.800 C 632.415,661.015 632.748,658.084 635.374,652.444 C 638.091,646.610 643.542,641.588 652.128,637.012 C 657.185,634.316 658.081,633.446 657.645,631.647 C 657.359,630.466 656.363,623.200 655.432,615.500 C 653.998,603.637 653.387,601.118 651.429,599 C 647.375,594.614 645.046,588.065 645.028,581 C 645.007,572.727 646.253,568.311 650.313,562.278 C 651.396,560.669 652.478,559.061 653.561,557.452 C 652.818,552.994 652.074,548.536 651.331,544.078 C 650.104,536.723 648.871,530.107 648.591,529.376 C 648.202,528.362 646.590,528.752 641.790,531.023 C 638.330,532.660 634.992,533.999 634.372,533.999 C 632.294,534 630.705,530.976 628.965,523.712 C 628.389,521.308 627.813,518.904 627.237,516.500 C 624.554,517.788 621.872,519.077 619.189,520.365 C 608.075,525.702 604.339,525.950 595,521.972 C 568.393,510.637 549.524,487.378 543.510,458.500 C 541.190,447.358 540.533,430.477 541.923,417.686 C 543.531,402.889 543.825,402.277 549.699,401.512 C 552.340,401.168 557.987,400.238 570,398 C 578.138,395.574 583.537,393.324 587.250,391.435 C 589.500,390.290 591.750,389.145 594,388 C 594.667,387.667 595.333,387.333 596,387 C 602.358,383.715 604.971,383.061 606.064,383.400 C 606.709,383.600 607.355,383.800 608,384 C 609,384 610,384 611,384 C 611.333,383.667 611.667,383.333 612,383 C 612,382.667 612,382.333 612,382 C 616.664,372.735 616.818,371.884 615.527,371.479 C 615.018,371.319 614.509,371.160 614,371 C 613.250,370.630 612.500,370.259 611.750,369.889 C 605.758,366.930 605.106,359.690 610.381,354.699 C 613.034,352.189 613.898,350.429 614.393,346.523 C 615.276,339.554 620.048,329.922 624.994,325.122 C 630.665,319.618 637.840,316.461 648,315 C 650.667,315 653.333,315 656,315 C 656.864,315 657.728,315 658.592,315 C 660.018,315 662.329,314.100 663.727,313 C 667.734,309.848 673.247,310.316 676.411,314.077 C 677.877,315.820 679,318.396 679,320.018 C 679,323.800 680.458,324.542 682.964,322.036 C 684.317,320.683 685,318.690 685,316.095 C 685,312.427 684.682,312.011 679.738,309.221 C 672.071,304.894 663.667,296.121 658.941,287.509 C 656.674,283.379 654.167,280 653.370,280 C 650.781,280 644.141,276.075 640.396,272.330 C 635.668,267.602 632.393,260.327 630.896,251.228 C 629.460,242.500 630.486,239 634.479,239 C 637.570,239 637.701,237.300 635,232.261 C 632.218,227.070 632.174,215.320 634.924,211.824 C 635.982,210.479 637.588,206.520 638.493,203.026 C 643.167,184.988 656.418,168.836 673.677,160.139 C 681.331,156.282 692.833,153.752 703.500,153.579 C 706.833,153.525 710.167,153.471 713.500,153.417 C 713.010,150.712 712.521,148.006 712.031,145.301 C 710.803,138.517 710.767,135.982 711.819,129.848 C 713.728,118.717 720.774,105 724.582,105 C 727.417,105 727.087,107.773 723.466,114.361 C 718.576,123.257 716.868,129.957 717.314,138.500 C 717.436,140.833 717.557,143.167 717.679,145.500 C 718.692,143.833 719.705,142.167 720.718,140.500 C 725.182,133.154 732.608,126.668 739.551,124.050 C 744.441,122.206 746.924,121.884 753.500,122.242 C 767.115,122.984 777.236,129.640 783.213,141.782 C 786.158,147.765 786.497,149.343 786.478,156.979 C 786.452,167.211 783.734,174.091 777.119,180.669 C 774.813,182.962 773.365,185.107 773.899,185.437 C 775.490,186.420 784.191,184.068 788.685,181.440 C 790.987,180.094 793.847,177.619 795.042,175.941 C 796.515,173.873 797.902,172.988 799.347,173.195 C 803.231,173.751 802.463,176.921 797.219,181.976 C 791.220,187.758 783.402,190.954 773.373,191.723 C 770.997,191.905 768.622,192.088 766.246,192.270 C 766.843,193.975 767.440,195.680 768.037,197.385 C 769.022,200.198 770.136,204.158 770.513,206.185 C 770.890,208.212 772.053,210.644 773.099,211.590 C 775.881,214.108 775.818,227.480 773,232.739 C 770.365,237.655 770.477,239 773.521,239 C 777.542,239 778.582,242.563 777.185,251.551 C 775.294,263.716 770.161,272.146 761.687,277.006 C 758.834,278.642 755.738,279.986 754.805,279.991 C 753.722,279.997 751.738,282.608 749.316,287.218 C 744.759,295.890 736.588,304.523 728.750,308.946 C 723.488,311.915 723,312.484 723,315.641 C 723,318.064 723.808,319.896 725.716,321.795 C 726.621,322.697 727.528,323.598 728.433,324.500 C 728.686,323.030 728.938,321.561 729.191,320.091 C 730.202,314.216 733.305,310.993 737.924,311.022 C 739.924,311.034 742.602,311.906 744,313 C 745.375,314.076 747.963,314.966 753,315 C 755.667,315 758.333,315 761,315 C 762.683,315.333 764.367,315.667 766.050,316 C 780.196,318.802 790.139,329.567 793.507,345.730 C 794.512,350.550 795.612,353.076 797.330,354.500 C 803.224,359.386 803.106,364.961 797,370 C 795.257,370.687 793.515,371.374 791.772,372.061 C 792.477,373.551 793.181,375.041 793.886,376.531 C 794.591,378.021 795.295,379.510 796,381 C 797.547,384.583 799.092,388.167 800.639,391.750 C 803.191,397.663 805.616,402.877 806.028,403.338 C 806.440,403.799 808.649,402.937 810.937,401.423 C 814.544,399.036 815.289,398.860 816.528,400.099 C 818.217,401.788 821.818,415.933 825.589,435.687 C 826.492,440.416 827.394,445.146 828.297,449.875 C 829.362,449.063 830.428,448.249 831.493,447.437 C 835.888,444.085 841.501,444.289 847,448 ZM 768,454 C 770.667,459.333 773.333,464.667 776,470 C 776.296,470.766 776.591,471.533 776.887,472.299 C 779.273,478.484 781.378,491.416 781.436,500.249 C 781.471,505.611 781.725,509.996 782,509.995 C 782.275,509.994 784.729,507.234 787.454,503.863 C 789.105,501.820 790.757,499.776 792.408,497.733 C 791.011,496.721 789.615,495.710 788.218,494.698 C 785.913,493.029 783.756,490.807 783.424,489.760 C 782.291,486.190 789.426,481 795.468,481 C 797.333,481 798,480.473 798,477 C 798.333,475 798.667,473 799,471 C 799,470.453 799,469.905 799,469.358 C 799,468.455 794.950,461.045 790,452.892 C 777.656,432.560 777.288,431.735 779.256,428.732 C 780.769,426.423 780.459,425.681 770.330,407.419 C 764.558,397.013 759.687,388.500 759.503,388.500 C 758.610,388.500 753.430,402.945 750,415 C 750,416.780 750,418.560 750,420.340 C 750,424.390 750.720,426.987 752.982,431.090 C 754.622,434.065 755.972,437.552 755.982,438.838 C 755.993,440.301 758.246,443.576 768,454 ZM 547.940,414.674 C 546.682,423.707 547.636,451.521 549.456,458.871 C 555.984,485.238 572.527,505.688 595.770,516.123 C 599.472,517.785 603.773,519.182 605.329,519.227 C 609.605,519.351 625.866,510.642 633.750,504.006 C 646.202,493.524 655.472,478.617 660.181,461.500 C 662.087,454.573 662.390,450.885 662.441,434 C 662.474,423.275 662.153,412.874 661.730,410.886 C 660.962,407.282 660.942,407.270 654.511,406.611 C 642.567,405.387 629.019,401.279 616.659,395.134 C 612.712,393.172 608.765,391.209 604.818,389.247 C 601.765,390.850 598.712,392.454 595.659,394.057 C 584.167,400.092 574.410,403.333 561,405.570 C 555.225,406.533 550.107,407.665 549.626,408.085 C 549.145,408.505 548.386,411.470 547.940,414.674 ZM 612.662,360.250 C 611.344,363.517 612.944,364.969 618.598,365.639 C 630.465,367.044 647.093,361.765 656.678,353.549 C 662.549,348.517 668.659,338.933 671.081,330.960 C 673.522,322.922 673.356,317.678 670.644,317.164 C 667.988,316.660 667.162,317.871 666.007,323.962 C 662.769,341.034 649.021,354.840 632.114,357.995 C 629.151,358.548 623.676,359 619.947,359 C 615.459,359 612.996,359.423 612.662,360.250 ZM 619.497,379.507 C 617.668,383.353 616.133,387 616.086,387.611 C 616.001,388.710 629.388,395.310 634.072,396.478 C 636.287,397.030 636.909,396.311 641.156,388.292 C 645.329,380.412 649.901,367.562 648.889,366.560 C 648.675,366.348 645.350,367.249 641.500,368.562 C 637.650,369.875 632.925,371.005 631,371.074 C 624.120,371.321 622.998,372.143 619.497,379.507 ZM 620.582,346.389 C 620.170,348.426 619.759,350.463 619.347,352.500 C 621.706,352.483 624.065,352.467 626.424,352.450 C 634.966,352.390 642.563,349.288 649.240,343.133 C 654.049,338.700 658.737,330.396 659.667,324.664 C 659.865,323.443 660.064,322.221 660.262,321 C 657.779,321 655.295,321 652.812,321 C 642.809,321 636.331,323.076 630.604,328.117 C 625.040,333.015 622.262,338.080 620.582,346.389 ZM 637,509 C 632.534,512.538 632.606,512.223 634.356,520.500 C 635.888,527.746 636.366,527.781 646.655,521.408 C 656.170,515.515 663.021,509.219 667.948,501.840 C 671.732,496.173 672.001,495.300 672.015,488.636 C 672.033,479.863 674.023,471.112 677.987,462.369 C 679.644,458.714 681,455.325 681,454.837 C 681,453.876 677.051,452.166 672.913,451.335 C 670.600,450.870 670.109,451.328 668.283,455.658 C 664.260,465.194 663.586,469.908 665.381,475.931 C 666.271,478.918 667,482.663 667,484.251 C 667,486.674 666.638,487.088 664.750,486.820 C 663.201,486.600 662.202,485.488 661.543,483.250 C 660.688,480.345 659,478.725 659,480.809 C 659,481.254 657.414,484.252 655.475,487.471 C 653.536,490.690 650.783,496.614 649.355,500.635 C 647.928,504.656 646.203,508.707 645.524,509.636 C 643.923,511.826 641,510.734 641,507.947 C 641,505.969 640.741,506.037 637,509 ZM 636.783,246 C 635.721,246 636.617,251.759 638.709,258.386 C 640.399,263.740 645.700,270.276 650.268,272.638 C 651.873,273.468 653.319,274.002 653.483,273.824 C 654.446,272.775 651.450,259.836 649.438,256.358 C 647.320,252.696 639.139,246 636.783,246 ZM 643.750,211.546 C 639.182,214.887 639,215.211 639,220.010 C 639,222.755 639.250,225 639.555,225 C 639.860,225 643.093,223.201 646.739,221.002 C 654.797,216.142 666.137,211.676 677.793,208.774 C 689.294,205.910 716.421,205.588 728,208.177 C 738.876,210.609 751.533,215.421 760.507,220.535 C 764.816,222.991 768.513,225 768.723,225 C 768.933,225 768.968,222.637 768.802,219.750 C 768.701,218 768.601,216.250 768.500,214.500 C 765.500,212.461 762.500,210.423 759.500,208.384 C 748.890,201.174 735.825,193.567 717.444,183.898 C 713.001,181.560 708.557,179.223 704.114,176.885 C 699.845,179.117 695.576,181.348 691.307,183.580 C 676.344,191.402 650.570,206.558 643.750,211.546 ZM 641.328,653.451 C 640.119,655.624 639.353,657.762 639.624,658.201 C 639.895,658.640 649.766,659 661.559,659 C 682.446,659 683,658.948 683,656.968 C 683,647.226 669.612,637.412 659.892,640.029 C 653.967,641.624 643.829,648.954 641.328,653.451 ZM 646.661,227.994 C 645.048,229.019 643.435,230.044 641.822,231.069 C 642.038,232.808 642.253,234.545 642.469,236.284 C 643.022,240.739 643.728,242.063 647.308,245.362 C 648.705,246.649 650.103,247.937 651.500,249.224 C 651.711,248.270 651.921,247.316 652.132,246.362 C 652.479,244.788 652.763,240.575 652.763,237 C 652.763,233.425 652.479,229.244 652.132,227.709 C 651.921,226.779 651.711,225.849 651.500,224.919 C 649.887,225.944 648.274,226.969 646.661,227.994 ZM 645.927,391.682 C 644.373,394.332 643.078,397.025 643.050,397.667 C 643.005,398.714 652.807,401.526 653.631,400.702 C 653.817,400.516 652.797,397.326 651.362,393.614 C 650.492,391.364 649.622,389.115 648.753,386.865 C 647.811,388.471 646.869,390.076 645.927,391.682 ZM 648.461,193.384 C 643.704,202.846 643.796,204.693 648.846,201.123 C 658.579,194.242 701.218,170.995 704.086,171.006 C 706.140,171.014 741.189,189.791 753.225,197.331 C 765.014,204.717 765.298,204.486 759.421,192.268 C 751.977,176.791 735.184,164.303 716.792,160.566 C 707.059,158.588 700.924,158.590 691.208,160.573 C 672.431,164.405 657.125,176.153 648.461,193.384 ZM 652.583,570.030 C 650.428,574.999 650.612,585.549 652.943,590.684 C 656.389,598.274 663.875,599.883 669.296,594.201 C 676.727,586.411 675.105,571.540 666.161,565.463 C 659.806,561.144 655.861,562.471 652.583,570.030 ZM 655.055,368.049 C 652.372,377.151 652.536,379.558 656.619,390.925 C 657.825,394.283 659.031,397.642 660.237,401 C 661.477,401 662.719,401 663.959,401 C 669.477,401 682.450,397.424 688.113,394.342 C 690.843,392.856 694.859,389.706 697.038,387.342 C 698.359,385.909 699.679,384.478 701,383.045 C 701,376.765 701,370.485 701,364.205 C 701,357.925 701,351.645 701,345.365 C 699.239,344.810 697.479,344.255 695.718,343.700 C 689.451,341.724 684.511,338.298 680.778,333.337 C 679.871,332.131 678.964,330.926 678.057,329.720 C 677.705,330.683 677.354,331.647 677.002,332.610 C 672.908,343.823 670.486,347.752 662.867,355.549 C 657.992,360.538 656.623,362.728 655.055,368.049 ZM 655.361,523.116 C 654.471,523.855 654.111,525.318 654.429,526.909 C 654.714,528.334 655.867,535.292 656.990,542.372 C 659.213,556.381 659.408,557 661.599,557 C 664.476,557 670.845,560.989 673.927,564.721 C 675.643,566.799 677.801,570.975 678.722,574 C 679.643,577.025 680.420,579.562 680.448,579.637 C 680.477,579.712 682.815,580.085 685.646,580.466 C 687.361,580.697 689.077,580.928 690.793,581.159 C 690.996,577.216 691.199,573.273 691.402,569.330 C 691.737,562.824 692.195,554.286 692.420,550.359 C 692.818,543.422 692.725,543.080 689.165,538.324 C 687.149,535.632 684.796,532.358 683.935,531.050 C 683.413,530.257 682.892,529.464 682.370,528.671 C 681.058,529.831 679.747,530.991 678.435,532.151 C 672.499,537.402 668.421,540 666.116,540 C 663.803,540 661.400,535.940 658.542,527.206 C 657.093,522.778 656.574,522.110 655.361,523.116 ZM 660.750,220.639 C 658.484,221.802 658,222.717 658,225.829 C 658,230.629 662.223,239.168 666.288,242.589 C 669.802,245.546 669.159,246.133 672.401,237 C 674.577,230.870 681.578,222.798 684.373,223.197 C 686.359,223.480 686.479,223.995 686.182,231 C 685.970,235.989 686.384,239.953 687.419,242.840 C 689.013,247.287 694.479,255 696.037,255 C 696.515,255 697.703,253.321 698.677,251.269 C 701.383,245.568 708.199,239.701 718.324,234.362 C 727.587,229.477 738.544,220.132 737.761,217.783 C 736.404,213.713 702.673,210.496 687.253,212.967 C 679.130,214.268 665.440,218.231 660.750,220.639 ZM 658.529,244 C 657.374,244 658.124,264.922 659.514,271.483 C 661.553,281.108 665.207,288.079 672.047,295.391 C 683.961,308.127 700.453,312.916 715.875,308.116 C 724.334,305.483 729.598,302.153 736.134,295.300 C 746.421,284.513 749.964,273.938 749.968,254 C 749.971,241.751 748.344,232.554 745.022,226.043 C 744.360,224.745 743.698,223.448 743.036,222.150 C 740.947,224.211 738.857,226.271 736.768,228.332 C 732.640,232.404 727.310,236.220 721.159,239.508 C 709.779,245.590 704.721,250.712 702.479,258.423 C 700.447,265.412 698.954,265.561 692.163,259.456 C 685.899,253.824 683.112,249.395 680.914,241.576 C 680.344,239.551 679.774,237.525 679.205,235.500 C 678.671,236.739 678.137,237.979 677.603,239.218 C 676.722,241.263 676,244.439 676,246.277 C 676,250.802 673.973,253.444 671.181,252.558 C 669.990,252.180 666.775,250.099 664.037,247.935 C 661.299,245.771 658.820,244 658.529,244 ZM 664.750,602.726 C 661.260,603.119 659.999,603.690 659.997,604.880 C 659.990,609.045 663.377,631.628 664.157,632.625 C 664.641,633.244 666.723,634.020 668.782,634.349 C 677.509,635.745 687.257,645.501 688.654,654.237 C 689.694,660.740 691.768,658.801 692.384,650.750 C 693.279,639.049 694.594,588.562 694.023,587.823 C 693.735,587.451 690.297,586.836 686.383,586.457 C 684.011,586.227 681.638,585.998 679.266,585.768 C 679.044,586.954 678.821,588.139 678.599,589.325 C 678.199,591.456 676.242,594.748 673.716,597.537 C 670.099,601.531 668.826,602.267 664.750,602.726 ZM 667.546,511.693 C 664.536,514.887 662.055,517.725 662.033,518 C 661.868,520.084 666.536,533 667.455,533 C 668.095,533 671.013,530.855 673.940,528.234 C 675.714,526.645 677.488,525.057 679.262,523.468 C 678.375,520.973 677.489,518.479 676.602,515.984 C 675.139,511.868 673.734,507.912 673.480,507.193 C 673.191,506.375 670.971,508.059 667.546,511.693 ZM 668.128,406.574 C 667.180,406.889 666.942,407.957 667.356,410.029 C 667.686,411.678 668.253,416.598 668.617,420.963 C 668.838,423.608 669.058,426.254 669.279,428.899 C 671.816,429.805 674.353,430.710 676.890,431.616 C 681.076,433.111 688.871,436.049 694.212,438.144 C 697.449,439.414 700.686,440.683 703.923,441.953 C 707.686,440.507 711.449,439.063 715.212,437.617 C 721.421,435.232 730.213,432.055 734.750,430.558 C 739.287,429.061 743.009,427.310 743.020,426.668 C 743.052,424.807 744.975,411.946 745.586,409.512 C 746.106,407.439 745.642,407.217 738.321,406.041 C 730.187,404.734 720.198,401.413 715.328,398.397 C 713.773,397.434 710.600,394.844 708.277,392.641 C 706.869,391.306 705.461,389.971 704.053,388.636 C 702.627,390.054 701.202,391.471 699.777,392.889 C 694.669,397.969 683.790,403.382 675.500,404.969 C 672.200,405.601 668.883,406.323 668.128,406.574 ZM 670.582,436 C 669.420,436 669,436.996 669,439.753 C 669,443.488 669.032,443.518 675.750,445.853 C 679.463,447.143 687.274,450.220 693.108,452.690 C 696.644,454.187 700.180,455.684 703.716,457.181 C 708.680,455.199 713.644,453.216 718.608,451.234 C 726.799,447.963 737.005,444.252 741.288,442.987 C 745.571,441.722 749.327,440.280 749.634,439.783 C 750.279,438.739 748.101,433 747.060,433 C 745.241,433 734.061,436.740 719.846,442.104 C 714.628,444.073 709.409,446.042 704.191,448.011 C 698.853,446.009 693.516,444.008 688.178,442.006 C 679.371,438.703 671.452,436 670.582,436 ZM 677.626,484.500 C 674.604,499.845 684.123,524.948 699.239,541.500 C 700.761,543.167 702.283,544.833 703.805,546.500 C 704.708,545.667 705.611,544.833 706.514,544 C 710.412,540.402 717.331,531.249 721.397,524.311 C 729.458,510.557 732.642,493.276 729.678,479.370 C 727.769,470.413 722.249,457 720.473,457 C 719.736,457 716.402,458.184 713.066,459.631 C 707.087,462.224 707,462.319 707,466.281 C 707,470.011 707.584,470.853 715.106,477.982 C 720.790,483.369 723.101,486.233 722.844,487.570 C 722.142,491.217 719.111,490.248 713.002,484.421 C 711.001,482.513 709.001,480.604 707,478.696 C 707,481.564 707,484.431 707,487.299 C 707,490.167 707,493.034 707,495.902 C 709.178,498.027 711.357,500.153 713.535,502.278 C 718.206,506.835 719.887,509.131 719.428,510.327 C 718.407,512.986 715.726,512.292 711.458,508.263 C 710.139,507.017 708.819,505.773 707.500,504.527 C 707.406,508.407 707.313,512.287 707.219,516.167 C 707.008,524.922 706.574,528.109 705.469,529.026 C 704.312,529.986 703.681,529.980 702.500,529 C 701.325,528.025 701,525.249 701,516.175 C 701,512.315 701,508.454 701,504.594 C 699.704,505.860 698.407,507.126 697.111,508.392 C 693.040,512.367 689.797,512.899 689.179,509.692 C 688.961,508.561 691.064,505.684 694.918,501.842 C 696.945,499.821 698.973,497.800 701,495.779 C 701,492.910 701,490.040 701,487.171 C 701,484.302 701,481.432 701,478.563 C 699.041,480.502 697.082,482.439 695.123,484.378 C 691.285,488.176 688.600,490.070 687.384,489.836 C 683.491,489.086 684.932,486.131 692.943,478.432 C 700.519,471.151 701,470.437 701,466.475 C 701,462.275 700.979,462.253 694.934,459.631 C 691.598,458.184 688.419,457 687.869,457 C 686.373,457 680.374,470.711 679.118,477 C 678.514,480.025 677.843,483.400 677.626,484.500 ZM 686.655,326.872 C 684.325,328.804 684.507,329.322 688.929,333.317 C 697.628,341.176 711.306,340.926 719.750,332.753 C 722.921,329.684 723.983,327 722.026,327 C 720.686,327 718.313,322.185 717.489,317.794 C 716.821,314.233 716.731,314.171 713.153,314.829 C 708.436,315.696 699.525,315.688 694.750,314.813 C 691.244,314.171 691,314.286 691,316.595 C 691,319.813 688.750,325.134 686.655,326.872 ZM 711.250,343.957 C 709.833,344.330 708.417,344.704 707,345.077 C 707,351.337 707,357.599 707,363.859 C 707,370.119 707,376.380 707,382.640 C 708.150,383.983 709.299,385.326 710.449,386.669 C 716.430,393.656 733.738,401 744.226,401 C 747.770,401 747.868,400.890 750.614,393.750 C 755.701,380.524 755.970,378.459 753.702,370.009 C 751.886,363.241 751.026,361.799 744.986,355.397 C 738.847,348.889 731,336.001 731,332.425 C 731,329.567 729.111,330.233 726.644,333.961 C 723.755,338.327 717.705,342.255 711.250,343.957 ZM 714.709,587.680 C 713.795,588.245 714.175,611.242 715.644,644.250 C 716.098,654.459 716.587,658 717.540,658 C 718.260,658 719.123,656.232 719.504,653.975 C 721.025,644.970 730.516,635.832 740.034,634.207 C 741.515,633.954 742.996,633.702 744.477,633.449 C 745.039,629.624 745.602,625.799 746.164,621.974 C 747.092,615.663 747.884,608.812 747.925,606.750 C 747.995,603.220 747.821,603 744.950,603 C 738.608,603 732.072,597.309 729.833,589.837 C 729.426,588.479 729.020,587.121 728.613,585.763 C 726.455,585.984 724.296,586.206 722.138,586.427 C 718.577,586.792 715.234,587.356 714.709,587.680 ZM 720.039,537 C 718.665,538.833 717.291,540.667 715.917,542.500 C 716.116,548.824 716.316,555.149 716.515,561.473 C 716.844,571.908 717.260,580.593 717.440,580.773 C 717.620,580.953 720.009,580.803 722.750,580.439 C 724.411,580.219 726.073,579.998 727.734,579.778 C 728.263,577.898 728.791,576.019 729.320,574.139 C 730.192,571.038 732.321,566.799 734.050,564.721 C 737.140,561.006 743.528,557 746.362,557 C 748.410,557 749.758,552.421 752.051,537.671 C 753.611,527.636 753.793,524.455 752.869,523.342 C 751.903,522.179 751.104,523.444 748.591,530.114 C 746.891,534.626 744.737,538.790 743.804,539.369 C 741.539,540.774 736.976,538.545 730.641,532.938 C 726.812,529.549 725.610,528.941 724.971,530.069 C 724.525,530.856 722.306,533.975 720.039,537 ZM 724.638,146.324 C 722.055,153.615 722.459,155.672 726.750,157.044 C 737.812,160.581 752.274,170.909 758.062,179.407 C 759.403,181.376 761.310,182.989 762.300,182.993 C 767.722,183.014 776.880,173.889 779.572,165.783 C 780.729,162.299 781.099,158.814 780.759,154.583 C 779.511,139.032 767.384,128 751.537,128 C 745.859,128 743.328,128.530 739.207,130.584 C 733.051,133.652 726.695,140.519 724.638,146.324 ZM 726.098,652 C 725.543,653.375 725.182,655.400 725.295,656.500 C 725.493,658.423 726.335,658.511 747.250,658.770 C 764.460,658.983 769,658.771 769,657.752 C 769,652.998 756.252,642.222 748,640 C 740.506,637.982 729.270,644.138 726.098,652 ZM 728.250,453.485 C 726.608,454.079 726.549,453.809 729.992,461.483 C 734.015,470.449 735.830,477.873 736.616,488.568 C 737.239,497.055 737.491,497.810 741.663,503.717 C 746.445,510.488 753.634,516.811 763.066,522.540 C 768.886,526.075 769.182,526.146 771.059,524.447 C 774.186,521.617 775.366,515.393 775.407,501.500 C 775.452,486.522 773.376,477.314 767.387,465.917 C 763.418,458.363 753.635,446 751.627,446 C 750.027,446 744,448.038 744,448.579 C 744,448.790 745.429,451.859 747.175,455.400 C 750.171,461.476 750.680,461.969 756.240,464.169 C 763.611,467.086 765.504,468.927 763.686,471.414 C 762.474,473.072 762.137,473.085 758.572,471.595 C 756.473,470.718 754.603,470 754.418,470 C 754.232,470 755.046,472.682 756.225,475.959 C 758.215,481.491 758.787,482.141 764.185,485.018 C 768.073,487.090 770,488.733 770,489.975 C 770,492.298 768.211,492.976 765.111,491.828 C 763.797,491.342 762.596,491.070 762.442,491.225 C 762.287,491.380 763.266,494.655 764.616,498.503 C 767.478,506.661 767.447,510.500 764.517,510.500 C 762.878,510.500 761.728,508.241 757.903,497.500 C 749.800,474.748 749.552,474.402 747.020,482.320 C 745.713,486.406 743.565,487.965 741.747,486.147 C 740.922,485.322 741.325,482.595 743.280,475.764 C 744.164,472.676 745.048,469.588 745.932,466.500 C 744.629,463.758 743.326,461.016 742.023,458.274 C 740.720,455.532 739.418,452.790 738.115,450.048 C 736.679,450.546 735.244,451.043 733.808,451.541 C 731.439,452.362 728.938,453.236 728.250,453.485 ZM 730.557,519.500 C 729.790,521.150 729.126,522.803 729.081,523.173 C 728.962,524.158 739.522,533 740.818,533 C 741.840,533 746.056,521.218 745.955,518.645 C 745.930,518.015 743.495,514.883 740.544,511.686 C 738.756,509.748 736.968,507.811 735.179,505.873 C 734.641,507.644 734.104,509.415 733.566,511.186 C 732.679,514.108 731.324,517.850 730.557,519.500 ZM 735.222,574.500 C 730.136,588.846 743.041,603.887 752.673,594.838 C 754.839,592.804 757.665,586.332 756.777,585.444 C 756.545,585.212 754.021,586.008 751.167,587.214 C 746.494,589.188 745.824,589.253 744.437,587.866 C 743.118,586.547 743.049,585.115 743.951,577.913 C 744.531,573.286 745.287,567.996 745.631,566.158 C 745.840,565.044 746.048,563.930 746.257,562.816 C 745.240,563.342 744.224,563.867 743.207,564.393 C 739.833,566.138 736.846,569.919 735.222,574.500 ZM 736.417,317.069 C 735.158,318.113 734.935,319.457 735.417,323.088 C 738.385,345.459 754.912,361.915 777.641,365.129 C 790.558,366.956 798.577,364.810 794.989,360.487 C 794.107,359.424 791.712,359 786.588,359 C 778.598,359 770.046,357.084 763.793,353.894 C 753.217,348.498 743.638,335.184 742.319,324.043 C 741.611,318.061 738.974,314.947 736.417,317.069 ZM 755.711,321 C 753.067,321 750.421,321 747.777,321 C 748.002,322.250 748.228,323.500 748.453,324.750 C 751.159,339.763 765.237,351.738 781.400,352.775 C 783.847,352.932 786.293,353.089 788.740,353.246 C 788.476,351.578 788.213,349.910 787.949,348.242 C 786.665,340.119 783.203,333.369 777.858,328.563 C 771.668,322.998 765.820,321 755.711,321 ZM 750.654,222 C 749.782,222 749.737,221.805 751.914,227.533 C 752.966,230.301 754.368,236.264 755.029,240.783 C 755.690,245.302 756.537,249 756.912,249 C 757.287,249 759.255,247.299 761.286,245.219 C 765.477,240.927 767.374,233.360 764.981,230.477 C 763.726,228.965 751.955,222 750.654,222 ZM 751.461,566.450 C 750.059,574.170 749.657,581 750.604,581 C 752.447,581 765.646,573.183 769.436,569.847 C 772.293,567.333 777.524,559.987 784.125,549.221 C 789.764,540.024 797.442,527.503 801.188,521.397 C 808.303,509.801 808.819,508.528 806.727,507.725 C 805.955,507.429 801.617,512.658 795.701,521.017 C 784.459,536.901 783.635,537.772 781.500,536 C 780.675,535.315 780,534.299 780,533.741 C 780,533.183 784.334,526.658 789.632,519.239 C 794.930,511.821 799.317,505.037 799.382,504.164 C 799.447,503.291 798.776,502.426 797.892,502.242 C 796.842,502.024 793.659,505.303 788.710,511.704 C 784.544,517.092 775.457,528.700 768.516,537.500 C 761.575,546.300 755.186,554.828 754.319,556.450 C 753.452,558.072 752.165,562.572 751.461,566.450 ZM 755.930,263 C 755.545,264.925 755.178,268.199 755.115,270.276 C 755.077,271.535 755.038,272.792 755,274.051 C 755.924,273.573 756.847,273.097 757.771,272.619 C 764.591,269.092 770.140,260.228 771.461,250.750 C 772.326,244.542 770.867,244.516 764.080,250.618 C 758.350,255.770 756.951,257.896 755.930,263 ZM 758.675,532.500 C 757.296,538.731 759.213,539.908 762.812,535.040 C 765.602,531.267 765.560,530.577 762.466,529.167 C 759.790,527.948 759.656,528.065 758.675,532.500 ZM 760.750,366.534 C 758.618,365.623 758.616,365.727 760.565,373.250 C 761.834,378.148 782.150,418.109 784.997,421.308 C 785.750,422.154 800.345,409.374 800.710,407.549 C 800.826,406.972 797.420,398.850 793.143,389.500 C 790.551,383.833 787.958,378.167 785.366,372.500 C 783.722,372.234 782.077,371.968 780.433,371.702 C 775.360,370.882 763.856,367.862 760.750,366.534 ZM 795.250,421.550 C 789.612,426.838 785,431.639 785,432.221 C 785,432.803 789.098,439.981 794.106,448.173 C 801.592,460.418 803.549,462.973 805.106,462.534 C 806.148,462.240 808.013,461.729 809.250,461.397 C 815.012,459.852 823,455.620 823,454.113 C 823,451.983 813.998,407.665 813.456,407.123 C 812.635,406.302 805.357,412.070 795.250,421.550 ZM 791.582,487.607 C 790.712,487.941 790,488.344 790,488.502 C 790,488.854 812.655,505.410 819.250,509.878 C 820.833,510.951 822.417,512.023 824,513.096 C 824,512.230 824,511.364 824,510.498 C 824,506.493 821.546,502.635 815.776,497.567 C 806.884,489.757 796.799,485.605 791.582,487.607 ZM 804.887,471.033 C 804.509,472.390 804.155,475.337 804.100,477.582 C 804.067,478.943 804.033,480.304 804,481.665 C 805.786,481.517 807.571,481.368 809.357,481.220 C 812.432,480.965 815.649,481.277 816.910,481.952 C 819.619,483.402 822.991,488.763 822.996,491.628 C 822.998,492.798 823.633,494.281 824.407,494.923 C 825.532,495.857 826.531,495.355 829.378,492.423 C 833.366,488.317 837,481.512 837,478.152 C 837,474.686 834.534,469.901 830.245,465.044 C 828.933,463.559 827.622,462.073 826.310,460.588 C 824.243,461.516 822.175,462.443 820.108,463.371 C 816.697,464.902 812.032,466.697 809.741,467.360 C 806.693,468.243 805.390,469.228 804.887,471.033 ZM 834.073,453.635 C 831.398,457.036 831.486,457.803 835.033,461.953 C 836.017,463.104 837.001,464.256 837.985,465.407 C 839.154,464.274 840.324,463.140 841.493,462.007 C 845.343,458.276 845.877,455.627 843.345,452.829 C 840.895,450.122 836.539,450.500 834.073,453.635 Z" fill="#4F2E32" stroke="none" />
  <path id="29" d="M 761,315 C 761,310.271 787.018,278.700 810.317,255.158 C 827.894,237.397 843.035,224.239 860.678,211.394 C 875.987,200.248 899.641,185.785 901.865,186.211 C 905.401,186.888 905.681,215.620 902.384,239.433 C 899.589,259.624 893.416,280.174 885.240,296.500 C 870.112,326.708 846.811,349.742 817.183,363.777 C 807.160,368.525 797.083,372.012 797.031,370.750 C 797.021,370.500 797.010,370.250 797,370 C 803.106,364.961 803.224,359.386 797.330,354.500 C 795.612,353.076 794.512,350.550 793.507,345.730 C 790.139,329.567 780.196,318.802 766.050,316 C 764.367,315.667 762.683,315.333 761,315 Z" fill="#FFFFFF" stroke="none" />
  <path id="29" d="M 614,371 C 611.601,372.402 604.910,370.335 591.437,364.027 C 565.407,351.841 542.042,330.385 527.588,305.397 C 517.957,288.746 510.108,266.548 506.587,246 C 502.523,222.280 502.256,186.952 506.135,186.210 C 508.051,185.844 530.555,199.283 543.500,208.524 C 579.046,233.900 617.267,271.888 641.614,306.041 C 643.743,309.027 645.871,312.014 648,315 C 637.840,316.461 630.665,319.618 624.994,325.122 C 620.048,329.922 615.276,339.554 614.393,346.523 C 613.898,350.429 613.034,352.189 610.381,354.699 C 605.106,359.690 605.758,366.930 611.750,369.889 C 612.500,370.259 613.250,370.630 614,371 Z" fill="#FFFFFF" stroke="none" />
  <path id="29" d="M 547.940,414.674 C 548.386,411.470 549.145,408.505 549.626,408.085 C 550.107,407.665 555.225,406.533 561,405.570 C 574.410,403.333 584.167,400.092 595.659,394.057 C 598.712,392.454 601.765,390.850 604.818,389.247 C 608.765,391.209 612.712,393.172 616.659,395.134 C 629.019,401.279 642.567,405.387 654.511,406.611 C 660.942,407.270 660.962,407.282 661.730,410.886 C 662.153,412.874 662.474,423.275 662.441,434 C 662.390,450.885 662.087,454.573 660.181,461.500 C 655.472,478.617 646.202,493.524 633.750,504.006 C 625.866,510.642 609.605,519.351 605.329,519.227 C 603.773,519.182 599.472,517.785 595.770,516.123 C 572.527,505.688 555.984,485.238 549.456,458.871 C 547.636,451.521 546.682,423.707 547.940,414.674 ZM 654.147,423.798 C 653.791,420.112 653.050,416.675 652.500,416.162 C 651.950,415.649 646.783,414.235 641.018,413.019 C 629.524,410.595 621.752,407.923 612.265,403.134 C 608.850,401.410 605.425,400 604.654,400 C 603.883,400 601.283,401.092 598.876,402.427 C 591.180,406.696 579.689,410.762 568.946,413.016 C 562.804,414.305 557.985,415.862 557.250,416.795 C 555.676,418.793 555.538,443.022 557.051,451.566 C 558.568,460.130 561.727,469.477 565.815,477.500 C 571.083,487.838 583.894,500.322 594.881,505.821 C 599.474,508.120 604.123,510 605.213,510 C 608.193,510 621.739,502.610 628.203,497.458 C 646.858,482.589 657.033,453.702 654.147,423.798 Z" fill="#FFFFFF" stroke="none" />
  <path id="4" d="M 654.147,423.798 C 657.033,453.702 646.858,482.589 628.203,497.458 C 621.739,502.610 608.193,510 605.213,510 C 604.123,510 599.474,508.120 594.881,505.821 C 583.894,500.322 571.083,487.838 565.815,477.500 C 561.727,469.477 558.568,460.130 557.051,451.566 C 555.538,443.022 555.676,418.793 557.250,416.795 C 557.985,415.862 562.804,414.305 568.946,413.016 C 579.689,410.762 591.180,406.696 598.876,402.427 C 601.283,401.092 603.883,400 604.654,400 C 605.425,400 608.850,401.410 612.265,403.134 C 621.752,407.923 629.524,410.595 641.018,413.019 C 646.783,414.235 651.950,415.649 652.500,416.162 C 653.050,416.675 653.791,420.112 654.147,423.798 ZM 563.131,420.573 C 562.021,420.942 561.857,424.003 562.263,436.764 C 562.838,454.803 564.097,460.573 570.165,472.966 C 575.674,484.216 586.115,494.845 597.250,500.538 C 599.833,501.859 602.417,503.179 605,504.500 C 607.537,503.198 610.073,501.897 612.610,500.595 C 625.043,494.216 636.693,481.881 642.018,469.459 C 646.772,458.369 649.400,441.404 648.382,428.388 C 648.170,425.684 647.959,422.979 647.747,420.275 C 645.391,419.854 643.036,419.433 640.680,419.012 C 632.063,417.472 623.028,414.459 612.658,409.668 C 610.051,408.463 607.443,407.259 604.836,406.054 C 602.947,407.007 601.057,407.960 599.168,408.913 C 591.722,412.668 578.010,417.464 570.500,418.939 C 567.200,419.587 563.884,420.323 563.131,420.573 Z" fill="#4F2E32" stroke="none" />
  <path id="29" d="M 563.131,420.573 C 563.884,420.323 567.200,419.587 570.500,418.939 C 578.010,417.464 591.722,412.668 599.168,408.913 C 601.057,407.960 602.947,407.007 604.836,406.054 C 607.443,407.259 610.051,408.463 612.658,409.668 C 623.028,414.459 632.063,417.472 640.680,419.012 C 643.036,419.433 645.391,419.854 647.747,420.275 C 647.959,422.979 648.170,425.684 648.382,428.388 C 649.400,441.404 646.772,458.369 642.018,469.459 C 636.693,481.881 625.043,494.216 612.610,500.595 C 610.073,501.897 607.537,503.198 605,504.500 C 602.417,503.179 599.833,501.859 597.250,500.538 C 586.115,494.845 575.674,484.216 570.165,472.966 C 564.097,460.573 562.838,454.803 562.263,436.764 C 561.857,424.003 562.021,420.942 563.131,420.573 ZM 629.527,458.328 C 628.036,457.052 626.544,455.776 625.053,454.500 C 625.878,452.833 626.704,451.167 627.529,449.500 C 628.891,446.750 630.116,442.700 630.252,440.500 C 630.335,439.167 630.417,437.833 630.500,436.500 C 629,436.525 627.500,436.551 626,436.576 C 623.525,436.618 619.986,436.843 618.135,437.076 C 614.936,437.479 614.707,437.293 613.512,433.324 C 611.923,428.046 608.386,422.276 605.934,420.964 C 604.346,420.114 603.563,420.621 600.997,424.163 C 599.320,426.478 597.262,430.729 596.425,433.609 C 595.918,435.355 595.410,437.100 594.903,438.846 C 593.444,438.349 591.984,437.851 590.525,437.354 C 588.117,436.534 584.652,436.006 582.824,436.181 C 579.618,436.489 579.509,436.642 579.744,440.500 C 579.878,442.700 581.132,446.711 582.531,449.413 C 583.379,451.051 584.226,452.689 585.074,454.327 C 583.502,455.710 581.930,457.093 580.358,458.476 C 574.629,463.518 574.890,464.820 582.360,468.475 C 587.077,470.783 588.879,471.122 594.935,470.835 C 597.291,470.723 599.649,470.612 602.005,470.500 C 602.004,473.209 602.003,475.919 602.002,478.628 C 602,484.635 602.391,487.080 603.500,488 C 604.697,488.993 605.303,488.993 606.500,488 C 607.608,487.080 608,484.631 608.001,478.628 C 608.001,475.919 608.003,473.209 608.003,470.500 C 610.753,470.500 613.501,470.500 616.251,470.500 C 623.479,470.500 625.088,470.155 629.250,467.708 C 631.862,466.172 634,464.295 634,463.536 C 634,462.777 631.987,460.433 629.527,458.328 Z" fill="#FFFFFF" stroke="none" />
  <path id="29" d="M 658.529,244 C 658.820,244 661.299,245.771 664.037,247.935 C 666.775,250.099 669.990,252.180 671.181,252.558 C 673.973,253.444 676,250.802 676,246.277 C 676,244.439 676.722,241.263 677.603,239.218 C 678.137,237.979 678.671,236.739 679.205,235.500 C 679.774,237.525 680.344,239.551 680.914,241.576 C 683.112,249.395 685.899,253.824 692.163,259.456 C 698.954,265.561 700.447,265.412 702.479,258.423 C 704.721,250.712 709.779,245.590 721.159,239.508 C 727.310,236.220 732.640,232.404 736.768,228.332 C 738.857,226.271 740.947,224.211 743.036,222.150 C 743.698,223.448 744.360,224.745 745.022,226.043 C 748.344,232.554 749.971,241.751 749.968,254 C 749.964,273.938 746.421,284.513 736.134,295.300 C 729.598,302.153 724.334,305.483 715.875,308.116 C 700.453,312.916 683.961,308.127 672.047,295.391 C 665.207,288.079 661.553,281.108 659.514,271.483 C 658.124,264.922 657.374,244 658.529,244 Z" fill="#FFFFFF" stroke="none" />
  <path id="52" d="M 791,232 C 816.046,209.454 826.127,200.869 838.696,191.377 C 853.085,180.511 873.929,167.189 885.908,161.202 C 894.559,156.879 895.887,156.506 902.408,156.573 C 911.788,156.670 918.577,159.624 924.459,166.166 C 929.745,172.045 931.654,177.389 932.972,190 C 936.903,227.600 928.554,274.514 911.834,308.779 C 899.833,333.373 880.655,356.800 860.250,371.793 C 856.812,374.319 854,377.016 854,377.786 C 854,378.556 856.516,381.956 859.591,385.343 C 866.524,392.978 874.166,408.307 876.556,419.375 C 879.011,430.744 878.171,449.647 874.742,460.208 C 871.644,469.750 868.518,475.170 862.592,481.272 C 861.061,482.848 859.531,484.424 858,486 C 858.036,484.278 858.071,482.556 858.107,480.834 C 858.190,476.835 859.192,473.765 862.546,467.247 C 867.770,457.094 870,447.954 870,436.689 C 870,425.928 868.813,419.816 864.901,410.418 C 860.855,400.699 855.377,392.548 847.936,385.176 C 840.313,377.624 840.127,375.373 846.750,370.858 C 873.760,352.445 896.372,324.483 909.307,293.500 C 921.319,264.728 928.054,222.177 925.122,193.594 C 923.396,176.766 919.394,169.988 908.498,165.435 C 902.753,163.035 898.046,164.212 885.500,171.188 C 858.145,186.398 829.001,208.257 805.391,231.271 C 795.155,241.249 793.208,241.348 791,232 Z" fill="#F5B7BA" stroke="none" />
  <path id="29" d="M 668.128,406.574 C 668.883,406.323 672.200,405.601 675.500,404.969 C 683.790,403.382 694.669,397.969 699.777,392.889 C 701.202,391.471 702.627,390.054 704.053,388.636 C 705.461,389.971 706.869,391.306 708.277,392.641 C 710.600,394.844 713.773,397.434 715.328,398.397 C 720.198,401.413 730.187,404.734 738.321,406.041 C 745.642,407.217 746.106,407.439 745.586,409.512 C 744.975,411.946 743.052,424.807 743.020,426.668 C 743.009,427.310 739.287,429.061 734.750,430.558 C 730.213,432.055 721.421,435.232 715.212,437.617 C 711.449,439.063 707.686,440.507 703.923,441.953 C 700.686,440.683 697.449,439.414 694.212,438.144 C 688.871,436.049 681.076,433.111 676.890,431.616 C 674.353,430.710 671.816,429.805 669.279,428.899 C 669.058,426.254 668.838,423.608 668.617,420.963 C 668.253,416.598 667.686,411.678 667.356,410.029 C 666.942,407.957 667.180,406.889 668.128,406.574 Z" fill="#FFFFFF" stroke="none" />
  <path id="29" d="M 643.750,211.546 C 650.570,206.558 676.344,191.402 691.307,183.580 C 695.576,181.348 699.845,179.117 704.114,176.885 C 708.557,179.223 713.001,181.560 717.444,183.898 C 735.825,193.567 748.890,201.174 759.500,208.384 C 762.500,210.423 765.500,212.461 768.500,214.500 C 768.601,216.250 768.701,218 768.802,219.750 C 768.968,222.637 768.933,225 768.723,225 C 768.513,225 764.816,222.991 760.507,220.535 C 751.533,215.421 738.876,210.609 728,208.177 C 716.421,205.588 689.294,205.910 677.793,208.774 C 666.137,211.676 654.797,216.142 646.739,221.002 C 643.093,223.201 639.860,225 639.555,225 C 639.250,225 639,222.755 639,220.010 C 639,215.211 639.182,214.887 643.750,211.546 ZM 705.541,185.034 C 705.027,184.608 704.514,184.181 704,183.755 C 703.486,184.181 702.973,184.608 702.459,185.034 C 701.279,186.013 700.986,187.974 701.209,193.406 C 701.489,200.229 701.596,200.500 704,200.500 C 706.404,200.500 706.511,200.229 706.791,193.406 C 707.014,187.974 706.721,186.013 705.541,185.034 Z" fill="#FFFFFF" stroke="none" />
  <path id="29" d="M 655.055,368.049 C 656.623,362.728 657.992,360.538 662.867,355.549 C 670.486,347.752 672.908,343.823 677.002,332.610 C 677.354,331.647 677.705,330.683 678.057,329.720 C 678.964,330.926 679.871,332.131 680.778,333.337 C 684.511,338.298 689.451,341.724 695.718,343.700 C 697.479,344.255 699.239,344.810 701,345.365 C 701,351.645 701,357.925 701,364.205 C 701,370.485 701,376.765 701,383.045 C 699.679,384.478 698.359,385.909 697.038,387.342 C 694.859,389.706 690.843,392.856 688.113,394.342 C 682.450,397.424 669.477,401 663.959,401 C 662.719,401 661.477,401 660.237,401 C 659.031,397.642 657.825,394.283 656.619,390.925 C 652.536,379.558 652.372,377.151 655.055,368.049 Z" fill="#FFFFFF" stroke="none" />
  <path id="29" d="M 677.626,484.500 C 677.843,483.400 678.514,480.025 679.118,477 C 680.374,470.711 686.373,457 687.869,457 C 688.419,457 691.598,458.184 694.934,459.631 C 700.979,462.253 701,462.275 701,466.475 C 701,470.437 700.519,471.151 692.943,478.432 C 684.932,486.131 683.491,489.086 687.384,489.836 C 688.600,490.070 691.285,488.176 695.123,484.378 C 697.082,482.439 699.041,480.502 701,478.563 C 701,481.432 701,484.302 701,487.171 C 701,490.040 701,492.910 701,495.779 C 698.973,497.800 696.945,499.821 694.918,501.842 C 691.064,505.684 688.961,508.561 689.179,509.692 C 689.797,512.899 693.040,512.367 697.111,508.392 C 698.407,507.126 699.704,505.860 701,504.594 C 701,508.454 701,512.315 701,516.175 C 701,525.249 701.325,528.025 702.500,529 C 703.681,529.980 704.312,529.986 705.469,529.026 C 706.574,528.109 707.008,524.922 707.219,516.167 C 707.313,512.287 707.406,508.407 707.500,504.527 C 708.819,505.773 710.139,507.017 711.458,508.263 C 715.726,512.292 718.407,512.986 719.428,510.327 C 719.887,509.131 718.206,506.835 713.535,502.278 C 711.357,500.153 709.178,498.027 707,495.902 C 707,493.034 707,490.167 707,487.299 C 707,484.431 707,481.564 707,478.696 C 709.001,480.604 711.001,482.513 713.002,484.421 C 719.111,490.248 722.142,491.217 722.844,487.570 C 723.101,486.233 720.790,483.369 715.106,477.982 C 707.584,470.853 707,470.011 707,466.281 C 707,462.319 707.087,462.224 713.066,459.631 C 716.402,458.184 719.736,457 720.473,457 C 722.249,457 727.769,470.413 729.678,479.370 C 732.642,493.276 729.458,510.557 721.397,524.311 C 717.331,531.249 710.412,540.402 706.514,544 C 705.611,544.833 704.708,545.667 703.805,546.500 C 702.283,544.833 700.761,543.167 699.239,541.500 C 684.123,524.948 674.604,499.845 677.626,484.500 Z" fill="#FFFFFF" stroke="none" />
  <path id="29" d="M 711.250,343.957 C 717.705,342.255 723.755,338.327 726.644,333.961 C 729.111,330.233 731,329.567 731,332.425 C 731,336.001 738.847,348.889 744.986,355.397 C 751.026,361.799 751.886,363.241 753.702,370.009 C 755.970,378.459 755.701,380.524 750.614,393.750 C 747.868,400.890 747.770,401 744.226,401 C 733.738,401 716.430,393.656 710.449,386.669 C 709.299,385.326 708.150,383.983 707,382.640 C 707,376.380 707,370.119 707,363.859 C 707,357.599 707,351.337 707,345.077 C 708.417,344.704 709.833,344.330 711.250,343.957 Z" fill="#FFFFFF" stroke="none" />
  <path id="2" d="M 656,315 C 653.333,315 650.667,315 648,315 C 645.871,312.014 643.743,309.027 641.614,306.041 C 617.267,271.888 579.046,233.900 543.500,208.524 C 530.555,199.283 508.051,185.844 506.135,186.210 C 502.256,186.952 502.523,222.280 506.587,246 C 510.108,266.548 517.957,288.746 527.588,305.397 C 542.042,330.385 565.407,351.841 591.437,364.027 C 604.910,370.335 611.601,372.402 614,371 C 614.509,371.160 615.018,371.319 615.527,371.479 C 616.818,371.884 616.664,372.735 612,382 C 611.503,381.799 611.005,381.597 610.508,381.396 C 609.625,381.038 608.810,381.446 608,384 C 607.355,383.800 606.709,383.600 606.064,383.400 C 604.971,383.061 602.358,383.715 596,387 C 595.978,386.750 595.955,386.500 595.933,386.250 C 595.896,385.837 594.884,386.025 593.683,386.666 C 592.482,387.307 592.062,387.869 594,388 C 591.750,389.145 589.500,390.290 587.250,391.435 C 583.537,393.324 578.138,395.574 570,398 C 570.121,397.388 570.243,396.775 570.364,396.163 C 570.912,393.396 581.830,385.469 591.457,380.850 C 596.155,378.596 600,376.413 600,376 C 600,375.587 596.082,373.370 591.294,371.072 C 544.865,348.794 515.292,311.235 503.052,259 C 498.185,238.229 495.968,210.422 497.794,193.040 C 498.683,184.579 499.078,183.330 501.535,181.217 C 505.127,178.127 506.874,178.600 520,186.216 C 549.099,203.099 572.900,221.773 600.574,249.435 C 622.889,271.740 631.632,282.083 656,315 Z" fill="#F18092" stroke="none" />
  <path id="4" d="M 629.527,458.328 C 631.987,460.433 634,462.777 634,463.536 C 634,464.295 631.862,466.172 629.250,467.708 C 625.088,470.155 623.479,470.500 616.251,470.500 C 613.501,470.500 610.753,470.500 608.003,470.500 C 608.003,473.209 608.001,475.919 608.001,478.628 C 608,484.631 607.608,487.080 606.500,488 C 605.303,488.993 604.697,488.993 603.500,488 C 602.391,487.080 602,484.635 602.002,478.628 C 602.003,475.919 602.004,473.209 602.005,470.500 C 599.649,470.612 597.291,470.723 594.935,470.835 C 588.879,471.122 587.077,470.783 582.360,468.475 C 574.890,464.820 574.629,463.518 580.358,458.476 C 581.930,457.093 583.502,455.710 585.074,454.327 C 584.226,452.689 583.379,451.051 582.531,449.413 C 581.132,446.711 579.878,442.700 579.744,440.500 C 579.509,436.642 579.618,436.489 582.824,436.181 C 584.652,436.006 588.117,436.534 590.525,437.354 C 591.984,437.851 593.444,438.349 594.903,438.846 C 595.410,437.100 595.918,435.355 596.425,433.609 C 597.262,430.729 599.320,426.478 600.997,424.163 C 603.563,420.621 604.346,420.114 605.934,420.964 C 608.386,422.276 611.923,428.046 613.512,433.324 C 614.707,437.293 614.936,437.479 618.135,437.076 C 619.986,436.843 623.525,436.618 626,436.576 C 627.500,436.551 629,436.525 630.500,436.500 C 630.417,437.833 630.335,439.167 630.252,440.500 C 630.116,442.700 628.891,446.750 627.529,449.500 C 626.704,451.167 625.878,452.833 625.053,454.500 C 626.544,455.776 628.036,457.052 629.527,458.328 ZM 587.279,460.706 C 583.299,462.656 583.712,463.438 589.492,464.894 C 593.989,466.026 597.032,465.769 602.195,463.820 C 604.227,463.053 606.142,463.219 609.979,464.493 C 614.288,465.924 615.829,466 620.037,464.991 C 622.770,464.335 625.270,463.372 625.592,462.851 C 625.914,462.330 623.888,460.936 621.089,459.753 C 615.374,457.338 614.733,455.539 618.371,452.121 C 621.162,449.499 624.665,443.331 623.834,442.500 C 623.516,442.182 621.286,442.651 618.878,443.543 C 611.185,446.392 610.344,446.419 609.654,443.840 C 609.309,442.553 609.022,440.496 609.014,439.270 C 608.997,436.505 606.064,429 605,429 C 603.754,429 601.002,436.726 600.985,440.270 C 600.957,446.223 599.917,446.729 592.903,444.205 C 589.489,442.977 586.478,442.189 586.213,442.454 C 585.286,443.381 588.170,448.788 591.073,451.570 C 594.362,454.721 594.877,457.796 592.250,458.595 C 591.287,458.888 589.051,459.838 587.279,460.706 Z" fill="#4F2E32" stroke="none" />
  <path id="29" d="M 724.638,146.324 C 726.695,140.519 733.051,133.652 739.207,130.584 C 743.328,128.530 745.859,128 751.537,128 C 767.384,128 779.511,139.032 780.759,154.583 C 781.099,158.814 780.729,162.299 779.572,165.783 C 776.880,173.889 767.722,183.014 762.300,182.993 C 761.310,182.989 759.403,181.376 758.062,179.407 C 752.274,170.909 737.812,160.581 726.750,157.044 C 722.459,155.672 722.055,153.615 724.638,146.324 Z" fill="#FFFFFF" stroke="none" />
  <path id="29" d="M 728.250,453.485 C 728.938,453.236 731.439,452.362 733.808,451.541 C 735.244,451.043 736.679,450.546 738.115,450.048 C 739.418,452.790 740.720,455.532 742.023,458.274 C 743.326,461.016 744.629,463.758 745.932,466.500 C 745.048,469.588 744.164,472.676 743.280,475.764 C 741.325,482.595 740.922,485.322 741.747,486.147 C 743.565,487.965 745.713,486.406 747.020,482.320 C 749.552,474.402 749.800,474.748 757.903,497.500 C 761.728,508.241 762.878,510.500 764.517,510.500 C 767.447,510.500 767.478,506.661 764.616,498.503 C 763.266,494.655 762.287,491.380 762.442,491.225 C 762.596,491.070 763.797,491.342 765.111,491.828 C 768.211,492.976 770,492.298 770,489.975 C 770,488.733 768.073,487.090 764.185,485.018 C 758.787,482.141 758.215,481.491 756.225,475.959 C 755.046,472.682 754.232,470 754.418,470 C 754.603,470 756.473,470.718 758.572,471.595 C 762.137,473.085 762.474,473.072 763.686,471.414 C 765.504,468.927 763.611,467.086 756.240,464.169 C 750.680,461.969 750.171,461.476 747.175,455.400 C 745.429,451.859 744,448.790 744,448.579 C 744,448.038 750.027,446 751.627,446 C 753.635,446 763.418,458.363 767.387,465.917 C 773.376,477.314 775.452,486.522 775.407,501.500 C 775.366,515.393 774.186,521.617 771.059,524.447 C 769.182,526.146 768.886,526.075 763.066,522.540 C 753.634,516.811 746.445,510.488 741.663,503.717 C 737.491,497.810 737.239,497.055 736.616,488.568 C 735.830,477.873 734.015,470.449 729.992,461.483 C 726.549,453.809 726.608,454.079 728.250,453.485 Z" fill="#FFFFFF" stroke="none" />
  <path id="29" d="M 660.750,220.639 C 665.440,218.231 679.130,214.268 687.253,212.967 C 702.673,210.496 736.404,213.713 737.761,217.783 C 738.544,220.132 727.587,229.477 718.324,234.362 C 708.199,239.701 701.383,245.568 698.677,251.269 C 697.703,253.321 696.515,255 696.037,255 C 694.479,255 689.013,247.287 687.419,242.840 C 686.384,239.953 685.970,235.989 686.182,231 C 686.479,223.995 686.359,223.480 684.373,223.197 C 681.578,222.798 674.577,230.870 672.401,237 C 669.159,246.133 669.802,245.546 666.288,242.589 C 662.223,239.168 658,230.629 658,225.829 C 658,222.717 658.484,221.802 660.750,220.639 Z" fill="#FFFFFF" stroke="none" />
  <path id="29" d="M 714.709,587.680 C 715.234,587.356 718.577,586.792 722.138,586.427 C 724.296,586.206 726.455,585.984 728.613,585.763 C 729.020,587.121 729.426,588.479 729.833,589.837 C 732.072,597.309 738.608,603 744.950,603 C 747.821,603 747.995,603.220 747.925,606.750 C 747.884,608.812 747.092,615.663 746.164,621.974 C 745.602,625.799 745.039,629.624 744.477,633.449 C 742.996,633.702 741.515,633.954 740.034,634.207 C 730.516,635.832 721.025,644.970 719.504,653.975 C 719.123,656.232 718.260,658 717.540,658 C 716.587,658 716.098,654.459 715.644,644.250 C 714.175,611.242 713.795,588.245 714.709,587.680 Z" fill="#FFFFFF" stroke="none" />
  <path id="29" d="M 664.750,602.726 C 668.826,602.267 670.099,601.531 673.716,597.537 C 676.242,594.748 678.199,591.456 678.599,589.325 C 678.821,588.139 679.044,586.954 679.266,585.768 C 681.638,585.998 684.011,586.227 686.383,586.457 C 690.297,586.836 693.735,587.451 694.023,587.823 C 694.594,588.562 693.279,639.049 692.384,650.750 C 691.768,658.801 689.694,660.740 688.654,654.237 C 687.257,645.501 677.509,635.745 668.782,634.349 C 666.723,634.020 664.641,633.244 664.157,632.625 C 663.377,631.628 659.990,609.045 659.997,604.880 C 659.999,603.690 661.260,603.119 664.750,602.726 Z" fill="#FFFFFF" stroke="none" />
  <path id="29" d="M 799,471 C 795.422,471 781.823,464.191 774.250,458.608 C 772.167,457.072 770.083,455.536 768,454 C 758.246,443.576 755.993,440.301 755.982,438.838 C 755.972,437.552 754.622,434.065 752.982,431.090 C 750.720,426.987 750,424.390 750,420.340 C 750,418.560 750,416.780 750,415 C 753.430,402.945 758.610,388.500 759.503,388.500 C 759.687,388.500 764.558,397.013 770.330,407.419 C 780.459,425.681 780.769,426.423 779.256,428.732 C 777.288,431.735 777.656,432.560 790,452.892 C 794.950,461.045 799,468.455 799,469.358 C 799,469.905 799,470.453 799,471 Z" fill="#FFFFFF" stroke="none" />
  <path id="29" d="M 648.461,193.384 C 657.125,176.153 672.431,164.405 691.208,160.573 C 700.924,158.590 707.059,158.588 716.792,160.566 C 735.184,164.303 751.977,176.791 759.421,192.268 C 765.298,204.486 765.014,204.717 753.225,197.331 C 741.189,189.791 706.140,171.014 704.086,171.006 C 701.218,170.995 658.579,194.242 648.846,201.123 C 643.796,204.693 643.704,202.846 648.461,193.384 Z" fill="#FFFFFF" stroke="none" />
  <path id="29" d="M 751.461,566.450 C 752.165,562.572 753.452,558.072 754.319,556.450 C 755.186,554.828 761.575,546.300 768.516,537.500 C 775.457,528.700 784.544,517.092 788.710,511.704 C 793.659,505.303 796.842,502.024 797.892,502.242 C 798.776,502.426 799.447,503.291 799.382,504.164 C 799.317,505.037 794.930,511.821 789.632,519.239 C 784.334,526.658 780,533.183 780,533.741 C 780,534.299 780.675,535.315 781.500,536 C 783.635,537.772 784.459,536.901 795.701,521.017 C 801.617,512.658 805.955,507.429 806.727,507.725 C 808.819,508.528 808.303,509.801 801.188,521.397 C 797.442,527.503 789.764,540.024 784.125,549.221 C 777.524,559.987 772.293,567.333 769.436,569.847 C 765.646,573.183 752.447,581 750.604,581 C 749.657,581 750.059,574.170 751.461,566.450 Z" fill="#FFFFFF" stroke="none" />
  <path id="29" d="M 795.250,421.550 C 805.357,412.070 812.635,406.302 813.456,407.123 C 813.998,407.665 823,451.983 823,454.113 C 823,455.620 815.012,459.852 809.250,461.397 C 808.013,461.729 806.148,462.240 805.106,462.534 C 803.549,462.973 801.592,460.418 794.106,448.173 C 789.098,439.981 785,432.803 785,432.221 C 785,431.639 789.612,426.838 795.250,421.550 Z" fill="#FFFFFF" stroke="none" />
  <path id="29" d="M 655.361,523.116 C 656.574,522.110 657.093,522.778 658.542,527.206 C 661.400,535.940 663.803,540 666.116,540 C 668.421,540 672.499,537.402 678.435,532.151 C 679.747,530.991 681.058,529.831 682.370,528.671 C 682.892,529.464 683.413,530.257 683.935,531.050 C 684.796,532.358 687.149,535.632 689.165,538.324 C 692.725,543.080 692.818,543.422 692.420,550.359 C 692.195,554.286 691.737,562.824 691.402,569.330 C 691.199,573.273 690.996,577.216 690.793,581.159 C 689.077,580.928 687.361,580.697 685.646,580.466 C 682.815,580.085 680.477,579.712 680.448,579.637 C 680.420,579.562 679.643,577.025 678.722,574 C 677.801,570.975 675.643,566.799 673.927,564.721 C 670.845,560.989 664.476,557 661.599,557 C 659.408,557 659.213,556.381 656.990,542.372 C 655.867,535.292 654.714,528.334 654.429,526.909 C 654.111,525.318 654.471,523.855 655.361,523.116 Z" fill="#FFFFFF" stroke="none" />
  <path id="29" d="M 796,381 C 801.824,381.086 815.866,386.461 823.465,391.514 C 841.443,403.468 851.840,423.562 849.197,441.250 C 848.642,444.962 847.921,448 847.594,448 C 847.396,448 847.198,448 847,448 C 841.501,444.289 835.888,444.085 831.493,447.437 C 830.428,448.249 829.362,449.063 828.297,449.875 C 827.394,445.146 826.492,440.416 825.589,435.687 C 821.818,415.933 818.217,401.788 816.528,400.099 C 815.289,398.860 814.544,399.036 810.937,401.423 C 808.649,402.937 806.440,403.799 806.028,403.338 C 805.616,402.877 803.191,397.663 800.639,391.750 C 799.092,388.167 797.547,384.583 796,381 Z" fill="#FFFFFF" stroke="none" />
  <path id="29" d="M 720.039,537 C 722.306,533.975 724.525,530.856 724.971,530.069 C 725.610,528.941 726.812,529.549 730.641,532.938 C 736.976,538.545 741.539,540.774 743.804,539.369 C 744.737,538.790 746.891,534.626 748.591,530.114 C 751.104,523.444 751.903,522.179 752.869,523.342 C 753.793,524.455 753.611,527.636 752.051,537.671 C 749.758,552.421 748.410,557 746.362,557 C 743.528,557 737.140,561.006 734.050,564.721 C 732.321,566.799 730.192,571.038 729.320,574.139 C 728.791,576.019 728.263,577.898 727.734,579.778 C 726.073,579.998 724.411,580.219 722.750,580.439 C 720.009,580.803 717.620,580.953 717.440,580.773 C 717.260,580.593 716.844,571.908 716.515,561.473 C 716.316,555.149 716.116,548.824 715.917,542.500 C 717.291,540.667 718.665,538.833 720.039,537 Z" fill="#FFFFFF" stroke="none" />
  <path id="2" d="M 851,455 C 849.667,452.667 848.333,450.333 847,448 C 847.198,448 847.396,448 847.594,448 C 847.921,448 848.642,444.962 849.197,441.250 C 851.840,423.562 841.443,403.468 823.465,391.514 C 815.866,386.461 801.824,381.086 796,381 C 795.295,379.510 794.591,378.021 793.886,376.531 C 793.181,375.041 792.477,373.551 791.772,372.061 C 793.515,371.374 795.257,370.687 797,370 C 797.010,370.250 797.021,370.500 797.031,370.750 C 797.083,372.012 807.160,368.525 817.183,363.777 C 846.811,349.742 870.112,326.708 885.240,296.500 C 893.416,280.174 899.589,259.624 902.384,239.433 C 905.681,215.620 905.401,186.888 901.865,186.211 C 899.641,185.785 875.987,200.248 860.678,211.394 C 843.035,224.239 827.894,237.397 810.317,255.158 C 787.018,278.700 761,310.271 761,315 C 758.333,315 755.667,315 753,315 C 753.750,313.688 754.500,312.377 755.250,311.065 C 756.487,308.901 761.735,301.665 766.911,294.986 C 802.066,249.621 844.814,211.218 888,186.205 C 901.116,178.608 902.878,178.131 906.445,181.199 C 908.806,183.229 909.306,184.681 910.176,192.022 C 911.412,202.447 910.574,227.136 908.510,241.103 C 899.493,302.132 867.999,346.847 817.250,370.673 C 812.162,373.061 808,375.412 808,375.897 C 808,376.382 812.739,379.094 818.532,381.923 C 841.800,393.288 855.084,412.673 855.246,435.500 C 855.296,442.531 854.839,445.649 851,455 Z" fill="#F18092" stroke="none" />
  <path id="29" d="M 760.750,366.534 C 763.856,367.862 775.360,370.882 780.433,371.702 C 782.077,371.968 783.722,372.234 785.366,372.500 C 787.958,378.167 790.551,383.833 793.143,389.500 C 797.420,398.850 800.826,406.972 800.710,407.549 C 800.345,409.374 785.750,422.154 784.997,421.308 C 782.150,418.109 761.834,378.148 760.565,373.250 C 758.616,365.727 758.618,365.623 760.750,366.534 Z" fill="#FFFFFF" stroke="none" />
  <path id="29" d="M 637,509 C 640.741,506.037 641,505.969 641,507.947 C 641,510.734 643.923,511.826 645.524,509.636 C 646.203,508.707 647.928,504.656 649.355,500.635 C 650.783,496.614 653.536,490.690 655.475,487.471 C 657.414,484.252 659,481.254 659,480.809 C 659,478.725 660.688,480.345 661.543,483.250 C 662.202,485.488 663.201,486.600 664.750,486.820 C 666.638,487.088 667,486.674 667,484.251 C 667,482.663 666.271,478.918 665.381,475.931 C 663.586,469.908 664.260,465.194 668.283,455.658 C 670.109,451.328 670.600,450.870 672.913,451.335 C 677.051,452.166 681,453.876 681,454.837 C 681,455.325 679.644,458.714 677.987,462.369 C 674.023,471.112 672.033,479.863 672.015,488.636 C 672.001,495.300 671.732,496.173 667.948,501.840 C 663.021,509.219 656.170,515.515 646.655,521.408 C 636.366,527.781 635.888,527.746 634.356,520.500 C 632.606,512.223 632.534,512.538 637,509 Z" fill="#FFFFFF" stroke="none" />
  <path id="29" d="M 587.279,460.706 C 589.051,459.838 591.287,458.888 592.250,458.595 C 594.877,457.796 594.362,454.721 591.073,451.570 C 588.170,448.788 585.286,443.381 586.213,442.454 C 586.478,442.189 589.489,442.977 592.903,444.205 C 599.917,446.729 600.957,446.223 600.985,440.270 C 601.002,436.726 603.754,429 605,429 C 606.064,429 608.997,436.505 609.014,439.270 C 609.022,440.496 609.309,442.553 609.654,443.840 C 610.344,446.419 611.185,446.392 618.878,443.543 C 621.286,442.651 623.516,442.182 623.834,442.500 C 624.665,443.331 621.162,449.499 618.371,452.121 C 614.733,455.539 615.374,457.338 621.089,459.753 C 623.888,460.936 625.914,462.330 625.592,462.851 C 625.270,463.372 622.770,464.335 620.037,464.991 C 615.829,466 614.288,465.924 609.979,464.493 C 606.142,463.219 604.227,463.053 602.195,463.820 C 597.032,465.769 593.989,466.026 589.492,464.894 C 583.712,463.438 583.299,462.656 587.279,460.706 Z" fill="#FFFFFF" stroke="none" />
  <path id="29" d="M 620.582,346.389 C 622.262,338.080 625.040,333.015 630.604,328.117 C 636.331,323.076 642.809,321 652.812,321 C 655.295,321 657.779,321 660.262,321 C 660.064,322.221 659.865,323.443 659.667,324.664 C 658.737,330.396 654.049,338.700 649.240,343.133 C 642.563,349.288 634.966,352.390 626.424,352.450 C 624.065,352.467 621.706,352.483 619.347,352.500 C 619.759,350.463 620.170,348.426 620.582,346.389 Z" fill="#FFFFFF" stroke="none" />
  <path id="29" d="M 670.582,436 C 671.452,436 679.371,438.703 688.178,442.006 C 693.516,444.008 698.853,446.009 704.191,448.011 C 709.409,446.042 714.628,444.073 719.846,442.104 C 734.061,436.740 745.241,433 747.060,433 C 748.101,433 750.279,438.739 749.634,439.783 C 749.327,440.280 745.571,441.722 741.288,442.987 C 737.005,444.252 726.799,447.963 718.608,451.234 C 713.644,453.216 708.680,455.199 703.716,457.181 C 700.180,455.684 696.644,454.187 693.108,452.690 C 687.274,450.220 679.463,447.143 675.750,445.853 C 669.032,443.518 669,443.488 669,439.753 C 669,436.996 669.420,436 670.582,436 Z" fill="#FFFFFF" stroke="none" />
  <path id="29" d="M 804.887,471.033 C 805.390,469.228 806.693,468.243 809.741,467.360 C 812.032,466.697 816.697,464.902 820.108,463.371 C 822.175,462.443 824.243,461.516 826.310,460.588 C 827.622,462.073 828.933,463.559 830.245,465.044 C 834.534,469.901 837,474.686 837,478.152 C 837,481.512 833.366,488.317 829.378,492.423 C 826.531,495.355 825.532,495.857 824.407,494.923 C 823.633,494.281 822.998,492.798 822.996,491.628 C 822.991,488.763 819.619,483.402 816.910,481.952 C 815.649,481.277 812.432,480.965 809.357,481.220 C 807.571,481.368 805.786,481.517 804,481.665 C 804.033,480.304 804.067,478.943 804.100,477.582 C 804.155,475.337 804.509,472.390 804.887,471.033 Z" fill="#FFFFFF" stroke="none" />
  <path id="29" d="M 612.662,360.250 C 612.996,359.423 615.459,359 619.947,359 C 623.676,359 629.151,358.548 632.114,357.995 C 649.021,354.840 662.769,341.034 666.007,323.962 C 667.162,317.871 667.988,316.660 670.644,317.164 C 673.356,317.678 673.522,322.922 671.081,330.960 C 668.659,338.933 662.549,348.517 656.678,353.549 C 647.093,361.765 630.465,367.044 618.598,365.639 C 612.944,364.969 611.344,363.517 612.662,360.250 Z" fill="#FFFFFF" stroke="none" />
  <path id="29" d="M 686.655,326.872 C 688.750,325.134 691,319.813 691,316.595 C 691,314.286 691.244,314.171 694.750,314.813 C 699.525,315.688 708.436,315.696 713.153,314.829 C 716.731,314.171 716.821,314.233 717.489,317.794 C 718.313,322.185 720.686,327 722.026,327 C 723.983,327 722.921,329.684 719.750,332.753 C 711.306,340.926 697.628,341.176 688.929,333.317 C 684.507,329.322 684.325,328.804 686.655,326.872 Z" fill="#FFFFFF" stroke="none" />
  <path id="29" d="M 755.711,321 C 765.820,321 771.668,322.998 777.858,328.563 C 783.203,333.369 786.665,340.119 787.949,348.242 C 788.213,349.910 788.476,351.578 788.740,353.246 C 786.293,353.089 783.847,352.932 781.400,352.775 C 765.237,351.738 751.159,339.763 748.453,324.750 C 748.228,323.500 748.002,322.250 747.777,321 C 750.421,321 753.067,321 755.711,321 Z" fill="#FFFFFF" stroke="none" />
  <path id="29" d="M 619.497,379.507 C 622.998,372.143 624.120,371.321 631,371.074 C 632.925,371.005 637.650,369.875 641.500,368.562 C 645.350,367.249 648.675,366.348 648.889,366.560 C 649.901,367.562 645.329,380.412 641.156,388.292 C 636.909,396.311 636.287,397.030 634.072,396.478 C 629.388,395.310 616.001,388.710 616.086,387.611 C 616.133,387 617.668,383.353 619.497,379.507 Z" fill="#FFFFFF" stroke="none" />
  <path id="29" d="M 726.098,652 C 729.270,644.138 740.506,637.982 748,640 C 756.252,642.222 769,652.998 769,657.752 C 769,658.771 764.460,658.983 747.250,658.770 C 726.335,658.511 725.493,658.423 725.295,656.500 C 725.182,655.400 725.543,653.375 726.098,652 Z" fill="#FFFFFF" stroke="none" />
  <path id="29" d="M 641.328,653.451 C 643.829,648.954 653.967,641.624 659.892,640.029 C 669.612,637.412 683,647.226 683,656.968 C 683,658.948 682.446,659 661.559,659 C 649.766,659 639.895,658.640 639.624,658.201 C 639.353,657.762 640.119,655.624 641.328,653.451 Z" fill="#FFFFFF" stroke="none" />
  <path id="70" d="M 776,470 C 776.510,468.058 778.564,468.736 782.061,470.716 C 785.053,472.410 789.862,474.517 792.750,475.398 C 794.500,475.932 796.250,476.466 798,477 C 798,480.473 797.333,481 795.468,481 C 789.426,481 782.291,486.190 783.424,489.760 C 783.756,490.807 785.913,493.029 788.218,494.698 C 789.615,495.710 791.011,496.721 792.408,497.733 C 790.757,499.776 789.105,501.820 787.454,503.863 C 784.729,507.234 782.275,509.994 782,509.995 C 781.725,509.996 781.471,505.611 781.436,500.249 C 781.378,491.416 779.273,478.484 776.887,472.299 C 776.591,471.533 776.296,470.766 776,470 Z" fill="#FEDBDA" stroke="none" />
  <path id="29" d="M 652.583,570.030 C 655.861,562.471 659.806,561.144 666.161,565.463 C 675.105,571.540 676.727,586.411 669.296,594.201 C 663.875,599.883 656.389,598.274 652.943,590.684 C 650.612,585.549 650.428,574.999 652.583,570.030 Z" fill="#FFFFFF" stroke="none" />
  <path id="29" d="M 667.546,511.693 C 670.971,508.059 673.191,506.375 673.480,507.193 C 673.734,507.912 675.139,511.868 676.602,515.984 C 677.489,518.479 678.375,520.973 679.262,523.468 C 677.488,525.057 675.714,526.645 673.940,528.234 C 671.013,530.855 668.095,533 667.455,533 C 666.536,533 661.868,520.084 662.033,518 C 662.055,517.725 664.536,514.887 667.546,511.693 Z" fill="#FFFFFF" stroke="none" />
  <path id="29" d="M 730.557,519.500 C 731.324,517.850 732.679,514.108 733.566,511.186 C 734.104,509.415 734.641,507.644 735.179,505.873 C 736.968,507.811 738.756,509.748 740.544,511.686 C 743.495,514.883 745.930,518.015 745.955,518.645 C 746.056,521.218 741.840,533 740.818,533 C 739.522,533 728.962,524.158 729.081,523.173 C 729.126,522.803 729.790,521.150 730.557,519.500 Z" fill="#FFFFFF" stroke="none" />
  <path id="2" d="M 768,454 C 770.083,455.536 772.167,457.072 774.250,458.608 C 781.823,464.191 795.422,471 799,471 C 798.667,473 798.333,475 798,477 C 796.250,476.466 794.500,475.932 792.750,475.398 C 789.862,474.517 785.053,472.410 782.061,470.716 C 778.564,468.736 776.510,468.058 776,470 C 773.333,464.667 770.667,459.333 768,454 Z" fill="#F18092" stroke="none" />
  <path id="29" d="M 791.582,487.607 C 796.799,485.605 806.884,489.757 815.776,497.567 C 821.546,502.635 824,506.493 824,510.498 C 824,511.364 824,512.230 824,513.096 C 822.417,512.023 820.833,510.951 819.250,509.878 C 812.655,505.410 790,488.854 790,488.502 C 790,488.344 790.712,487.941 791.582,487.607 Z" fill="#FFFFFF" stroke="none" />
  <path id="29" d="M 750.654,222 C 751.955,222 763.726,228.965 764.981,230.477 C 767.374,233.360 765.477,240.927 761.286,245.219 C 759.255,247.299 757.287,249 756.912,249 C 756.537,249 755.690,245.302 755.029,240.783 C 754.368,236.264 752.966,230.301 751.914,227.533 C 749.737,221.805 749.782,222 750.654,222 Z" fill="#FFFFFF" stroke="none" />
  <path id="29" d="M 736.417,317.069 C 738.974,314.947 741.611,318.061 742.319,324.043 C 743.638,335.184 753.217,348.498 763.793,353.894 C 770.046,357.084 778.598,359 786.588,359 C 791.712,359 794.107,359.424 794.989,360.487 C 798.577,364.810 790.558,366.956 777.641,365.129 C 754.912,361.915 738.385,345.459 735.417,323.088 C 734.935,319.457 735.158,318.113 736.417,317.069 Z" fill="#FFFFFF" stroke="none" />
  <path id="29" d="M 636.783,246 C 639.139,246 647.320,252.696 649.438,256.358 C 651.450,259.836 654.446,272.775 653.483,273.824 C 653.319,274.002 651.873,273.468 650.268,272.638 C 645.700,270.276 640.399,263.740 638.709,258.386 C 636.617,251.759 635.721,246 636.783,246 Z" fill="#FFFFFF" stroke="none" />
  <path id="29" d="M 646.661,227.994 C 648.274,226.969 649.887,225.944 651.500,224.919 C 651.711,225.849 651.921,226.779 652.132,227.709 C 652.479,229.244 652.763,233.425 652.763,237 C 652.763,240.575 652.479,244.788 652.132,246.362 C 651.921,247.316 651.711,248.270 651.500,249.224 C 650.103,247.937 648.705,246.649 647.308,245.362 C 643.728,242.063 643.022,240.739 642.469,236.284 C 642.253,234.545 642.038,232.808 641.822,231.069 C 643.435,230.044 645.048,229.019 646.661,227.994 Z" fill="#FFFFFF" stroke="none" />
  <path id="29" d="M 755.930,263 C 756.951,257.896 758.350,255.770 764.080,250.618 C 770.867,244.516 772.326,244.542 771.461,250.750 C 770.140,260.228 764.591,269.092 757.771,272.619 C 756.847,273.097 755.924,273.573 755,274.051 C 755.038,272.792 755.077,271.535 755.115,270.276 C 755.178,268.199 755.545,264.925 755.930,263 Z" fill="#FFFFFF" stroke="none" />
  <path id="29" d="M 735.222,574.500 C 736.846,569.919 739.833,566.138 743.207,564.393 C 744.224,563.867 745.240,563.342 746.257,562.816 C 746.048,563.930 745.840,565.044 745.631,566.158 C 745.287,567.996 744.531,573.286 743.951,577.913 C 743.049,585.115 743.118,586.547 744.437,587.866 C 745.824,589.253 746.494,589.188 751.167,587.214 C 754.021,586.008 756.545,585.212 756.777,585.444 C 757.665,586.332 754.839,592.804 752.673,594.838 C 743.041,603.887 730.136,588.846 735.222,574.500 Z" fill="#FFFFFF" stroke="none" />
  <path id="29" d="M 834.073,453.635 C 836.539,450.500 840.895,450.122 843.345,452.829 C 845.877,455.627 845.343,458.276 841.493,462.007 C 840.324,463.140 839.154,464.274 837.985,465.407 C 837.001,464.256 836.017,463.104 835.033,461.953 C 831.486,457.803 831.398,457.036 834.073,453.635 Z" fill="#FFFFFF" stroke="none" />
  <path id="29" d="M 645.927,391.682 C 646.869,390.076 647.811,388.471 648.753,386.865 C 649.622,389.115 650.492,391.364 651.362,393.614 C 652.797,397.326 653.817,400.516 653.631,400.702 C 652.807,401.526 643.005,398.714 643.050,397.667 C 643.078,397.025 644.373,394.332 645.927,391.682 Z" fill="#FFFFFF" stroke="none" />
  <path id="4" d="M 705.541,185.034 C 706.721,186.013 707.014,187.974 706.791,193.406 C 706.511,200.229 706.404,200.500 704,200.500 C 701.596,200.500 701.489,200.229 701.209,193.406 C 700.986,187.974 701.279,186.013 702.459,185.034 C 702.973,184.608 703.486,184.181 704,183.755 C 704.514,184.181 705.027,184.608 705.541,185.034 Z" fill="#4F2E32" stroke="none" />
  <path id="29" d="M 758.675,532.500 C 759.656,528.065 759.790,527.948 762.466,529.167 C 765.560,530.577 765.602,531.267 762.812,535.040 C 759.213,539.908 757.296,538.731 758.675,532.500 Z" fill="#FFFFFF" stroke="none" />
  <path id="29" d="M 608,384 C 608.810,381.446 609.625,381.038 610.508,381.396 C 611.005,381.597 611.503,381.799 612,382 C 612,382.333 612,382.667 612,383 C 611.667,383.333 611.333,383.667 611,384 C 610,384 609,384 608,384 Z" fill="#FFFFFF" stroke="none" />
  <path id="70" d="M 594,388 C 592.062,387.869 592.482,387.307 593.683,386.666 C 594.884,386.025 595.896,385.837 595.933,386.250 C 595.955,386.500 595.978,386.750 596,387 C 595.333,387.333 594.667,387.667 594,388 Z" fill="#FEDBDA" stroke="none" />
  </g>

  <!-- ══════════════════════════════════ -->
  <!--  FLOATING SKILL BADGES             -->
  <!-- ══════════════════════════════════ -->

  <!-- VUE 3 — top left -->
  <g transform="translate(52, 90)" filter="url(#badgeGlow)">
    <rect x="-22" y="-18" width="44" height="36" rx="8" fill="#1B2D3E" opacity="0.95"/>
    <path d="M-12,-8 L0,12 L12,-8 L7,-8 L0,4 L-7,-8 Z" fill="#42b883"/>
    <text x="0" y="24" text-anchor="middle" font-family="monospace" font-size="8" fill="#42b883" font-weight="bold">Vue 3</text>
    <rect x="-22" y="-18" width="44" height="36" rx="8" fill="none" stroke="#42b883" stroke-width="0.8" opacity="0.6"/>
  </g>

  <!-- TYPESCRIPT — top right -->
  <g transform="translate(448, 85)" filter="url(#badgeGlow)">
    <rect x="-20" y="-18" width="40" height="36" rx="7" fill="#007ACC" opacity="0.95"/>
    <text x="0" y="5" text-anchor="middle" font-family="monospace" font-size="14" fill="white" font-weight="bold">TS</text>
    <text x="0" y="24" text-anchor="middle" font-family="monospace" font-size="7" fill="#ADE0FF">TypeScript</text>
    <rect x="-20" y="-18" width="40" height="36" rx="7" fill="none" stroke="#ADE0FF" stroke-width="0.8" opacity="0.5"/>
  </g>

  <!-- NESTJS — right mid -->
  <g transform="translate(460, 215)" filter="url(#badgeGlow)">
    <rect x="-22" y="-18" width="44" height="36" rx="8" fill="#E0234E" opacity="0.95"/>
    <path d="M-10,4 L-10,-6 L-4,0 L0,-8 L4,0 L10,-6 L10,4 Z" fill="white" opacity="0.9"/>
    <text x="0" y="24" text-anchor="middle" font-family="monospace" font-size="8" fill="#FFB3C6" font-weight="bold">NestJS</text>
    <rect x="-22" y="-18" width="44" height="36" rx="8" fill="none" stroke="#FFB3C6" stroke-width="0.8" opacity="0.5"/>
  </g>

  <!-- NODE.JS — left mid -->
  <g transform="translate(40, 215)" filter="url(#badgeGlow)">
    <rect x="-22" y="-18" width="44" height="36" rx="8" fill="#2D5A1B" opacity="0.95"/>
    <polygon points="0,-9 8,-4.5 8,4.5 0,9 -8,4.5 -8,-4.5" fill="none" stroke="#6CC24A" stroke-width="1.5"/>
    <text x="0" y="2" text-anchor="middle" font-family="monospace" font-size="7" fill="#6CC24A" font-weight="bold">N</text>
    <text x="0" y="24" text-anchor="middle" font-family="monospace" font-size="8" fill="#6CC24A" font-weight="bold">Node.js</text>
    <rect x="-22" y="-18" width="44" height="36" rx="8" fill="none" stroke="#6CC24A" stroke-width="0.8" opacity="0.5"/>
  </g>

  <!-- AWS — bottom right -->
  <g transform="translate(445, 355)" filter="url(#badgeGlow)">
    <rect x="-22" y="-18" width="44" height="36" rx="8" fill="#1A2535" opacity="0.95"/>
    <path d="M-10,-4 Q-10,-10 -4,-10 Q-3,-14 3,-14 Q9,-14 9,-8 Q13,-8 13,-3 Q13,4 6,4 L-8,4 Q-14,4 -14,-2 Q-14,-7 -10,-4 Z" fill="#FF9900" opacity="0.9"/>
    <text x="0" y="24" text-anchor="middle" font-family="monospace" font-size="8" fill="#FF9900" font-weight="bold">AWS</text>
    <rect x="-22" y="-18" width="44" height="36" rx="8" fill="none" stroke="#FF9900" stroke-width="0.8" opacity="0.5"/>
  </g>

  <!-- DOCKER — bottom left -->
  <g transform="translate(55, 355)" filter="url(#badgeGlow)">
    <rect x="-22" y="-18" width="44" height="36" rx="8" fill="#0A3A52" opacity="0.95"/>
    <ellipse cx="0" cy="-2" rx="10" ry="6" fill="white" opacity="0.95"/>
    <rect x="-7" y="-8" width="5" height="4" rx="1" fill="#0DB7ED"/>
    <rect x="-1" y="-8" width="5" height="4" rx="1" fill="#0DB7ED"/>
    <path d="M10,0 Q14,-4 12,-8" fill="none" stroke="white" stroke-width="2" stroke-linecap="round" opacity="0.9"/>
    <text x="0" y="24" text-anchor="middle" font-family="monospace" font-size="8" fill="#0DB7ED" font-weight="bold">Docker</text>
    <rect x="-22" y="-18" width="44" height="36" rx="8" fill="none" stroke="#0DB7ED" stroke-width="0.8" opacity="0.4"/>
  </g>

  <!-- ══════════════════════════════════ -->
  <!--  SPARKLES & MAGIC DUST             -->
  <!-- ══════════════════════════════════ -->
  <path d="M112,148 L114,141 L116,148 L123,150 L116,152 L114,159 L112,152 L105,150 Z" fill="#FFD166" opacity="0.8"/>
  <path d="M388,142 L390,136 L392,142 L398,144 L392,146 L390,152 L388,146 L382,144 Z" fill="#FFB7C5" opacity="0.8"/>
  <path d="M130,318 L131.5,313 L133,318 L138,319.5 L133,321 L131.5,326 L130,321 L125,319.5 Z" fill="#C9A0DC" opacity="0.7"/>
  <path d="M370,320 L371.5,315 L373,320 L378,321.5 L373,323 L371.5,328 L370,323 L365,321.5 Z" fill="#FFD166" opacity="0.7"/>
  <path d="M250,418 L251.5,413 L253,418 L258,419.5 L253,421 L251.5,426 L250,421 L245,419.5 Z" fill="#FFB7C5" opacity="0.55"/>
  <!-- Tiny sparkle dots -->
  <circle cx="88" cy="165" r="2.5" fill="#FFB7C5" opacity="0.6"/>
  <circle cx="412" cy="162" r="2.5" fill="#C9A0DC" opacity="0.6"/>
  <circle cx="105" cy="295" r="2" fill="#FFB7C5" opacity="0.5"/>
  <circle cx="395" cy="295" r="2" fill="#C9A0DC" opacity="0.5"/>
  <circle cx="210" cy="430" r="2" fill="#FFB7C5" opacity="0.4"/>
  <circle cx="290" cy="430" r="2" fill="#C9A0DC" opacity="0.4"/>
  <circle cx="250" cy="440" r="1.5" fill="#FFD166" opacity="0.35"/>
</svg>